<?xml version="1.0" encoding="UTF-8"?>
<svg version="1.1" xmlns="http://www.w3.org/2000/svg" width="512" height="512">
<path d="M0 0 C0.86020752 0.67289063 0.86020752 0.67289063 1.73779297 1.359375 C27.98266977 22.21205747 44.26887709 51.56813971 48.375 84.875 C51.7190991 117.21558229 42.83824411 149.28501577 23 175 C20.12653116 178.46536295 17.11570477 181.7520497 14 185 C13.23042969 185.83273438 12.46085937 186.66546875 11.66796875 187.5234375 C-1.79543773 201.66110181 -19.86876504 211.90762977 -38.5 217.5625 C-39.28769775 217.80186279 -40.07539551 218.04122559 -40.88696289 218.2878418 C-47.08311818 220.02452986 -52.37231836 220.39748349 -59 221 C-59 230.57 -59 240.14 -59 250 C-46.13 250 -33.26 250 -20 250 C-20 260.23 -20 270.46 -20 281 C-11.05514073 280.88170175 -11.05514073 280.88170175 -2.11083984 280.72973633 C-0.98887207 280.72224365 0.1330957 280.71475098 1.2890625 280.70703125 C2.43068848 280.6913208 3.57231445 280.67561035 4.74853516 280.65942383 C9.07045546 281.11212535 12.42238392 282.56103427 15.64453125 285.5 C20.12189989 291.25019919 20 293.16523503 20 301 C57.62 301 95.24 301 134 301 C134 294.4 134 287.8 134 281 C144.56 281 155.12 281 166 281 C166 332.48 166 383.96 166 437 C155.44 437 144.88 437 134 437 C134 430.4 134 423.8 134 417 C96.38 417 58.76 417 20 417 C20 419.64 20 422.28 20 425 C18.14231853 430.26343082 15.43208258 432.83422673 11 436 C7.49198606 437.23979428 4.04061922 437.13396469 0.34674072 437.14717102 C-0.32073504 437.15084771 -0.9882108 437.1545244 -1.6759131 437.1583125 C-3.91122855 437.16932042 -6.14649747 437.17318823 -8.38183594 437.17700195 C-9.98519029 437.18326876 -11.5885432 437.18991575 -13.19189453 437.19691467 C-18.45604445 437.21793054 -23.72019457 437.22831431 -28.984375 437.23828125 C-30.79820013 437.24232964 -32.6120251 437.24644659 -34.42584991 437.25063133 C-42.94746805 437.26967707 -51.46907756 437.28390975 -59.99071288 437.2922433 C-69.82074247 437.3020157 -79.65054687 437.32833784 -89.48049712 437.36874419 C-97.08318959 437.39892085 -104.68581755 437.41371362 -112.28856874 437.41702431 C-116.82724393 437.4193729 -121.3656784 437.42830848 -125.90428925 437.45348549 C-130.17580179 437.47679861 -134.44691562 437.48098652 -138.71847534 437.47072411 C-140.28253761 437.47022943 -141.84661974 437.47652971 -143.41062164 437.49028015 C-158.16226332 437.61267446 -158.16226332 437.61267446 -165 433 C-170.16075422 427.57459172 -170 424.84678949 -170 417 C-207.62 417 -245.24 417 -284 417 C-284 423.6 -284 430.2 -284 437 C-294.56 437 -305.12 437 -316 437 C-316 385.52 -316 334.04 -316 281 C-305.44 281 -294.88 281 -284 281 C-284 287.6 -284 294.2 -284 301 C-246.38 301 -208.76 301 -170 301 C-170 298.36 -170 295.72 -170 293 C-168.14143173 287.73405656 -165.39685804 285.20604232 -161 282 C-157.64264863 280.88088288 -155.11794614 280.88634414 -151.58203125 280.90234375 C-149.88784058 280.90609009 -149.88784058 280.90609009 -148.15942383 280.90991211 C-146.00769653 280.92356812 -146.00769653 280.92356812 -143.8125 280.9375 C-139.254375 280.958125 -134.69625 280.97875 -130 281 C-130 270.77 -130 260.54 -130 250 C-117.13 250 -104.26 250 -91 250 C-91 240.43 -91 230.86 -91 221 C-94.63 220.67 -98.26 220.34 -102 220 C-104.75109043 219.41643536 -107.32645303 218.811016 -110 218 C-110.70930664 217.78633789 -111.41861328 217.57267578 -112.14941406 217.35253906 C-130.8750916 211.40438267 -146.84455585 201.55406907 -161 188 C-161.80953125 187.26523438 -162.6190625 186.53046875 -163.453125 185.7734375 C-185.64219353 164.91013092 -197.62857189 134.04284693 -199 104 C-199.04125 103.23042969 -199.0825 102.46085937 -199.125 101.66796875 C-199.96706709 70.77463223 -188.82168828 41.4091602 -169 18 C-167.92685547 16.68902344 -167.92685547 16.68902344 -166.83203125 15.3515625 C-146.75085241 -8.1269347 -115.86053057 -22.20115992 -85.34204102 -24.84106445 C-54.84055943 -26.91095547 -24.23364211 -18.97118706 0 0 Z " fill="#1C8FC7" transform="translate(331,50)"/>
<path d="M0 0 C14.46642474 12.93051161 23.54416574 29.45557833 28.35546875 48.12915039 C28.71253906 49.34602539 29.06960938 50.56290039 29.4375 51.81665039 C34.8455308 73.73997523 28.53841319 98.94333616 17.10546875 117.87915039 C3.04809507 138.45091675 -15.390111 152.59249813 -39.64453125 159.12915039 C-40.83755859 159.4655957 -40.83755859 159.4655957 -42.0546875 159.80883789 C-64.88491291 165.09126723 -89.32297679 160.14107176 -109.26953125 148.44165039 C-133.38812912 132.80594173 -147.18642199 111.30688018 -153.25 83.33618164 C-156.3756186 57.92892552 -150.86306671 34.10501865 -135.5390625 13.48852539 C-120.81724073 -4.84545472 -100.263656 -19.51776231 -76.359375 -22.48022461 C-47.70557746 -25.2130836 -22.11374548 -19.05435324 0 0 Z " fill="#DFD8E0" transform="translate(317.64453125,79.870849609375)"/>
<path d="M0 0 C0.57347168 0.44859375 1.14694336 0.8971875 1.73779297 1.359375 C27.98266977 22.21205747 44.26887709 51.56813971 48.375 84.875 C51.7190991 117.21558229 42.83824411 149.28501577 23 175 C20.12653116 178.46536295 17.11570477 181.7520497 14 185 C13.23042969 185.83273438 12.46085938 186.66546875 11.66796875 187.5234375 C-1.79543773 201.66110181 -19.86876504 211.90762977 -38.5 217.5625 C-39.28769775 217.80186279 -40.07539551 218.04122559 -40.88696289 218.2878418 C-47.08311818 220.02452986 -52.37231836 220.39748349 -59 221 C-59 230.57 -59 240.14 -59 250 C-46.13 250 -33.26 250 -20 250 C-19.9690625 257.6415625 -19.9690625 257.6415625 -19.9375 265.4375 C-19.928396 267.04681396 -19.91929199 268.65612793 -19.90991211 270.31420898 C-19.90616577 272.19861694 -19.90616577 272.19861694 -19.90234375 274.12109375 C-19.89710693 275.4145874 -19.89187012 276.70808105 -19.88647461 278.04077148 C-20 281 -20 281 -21 282 C-22.4017833 282.09762523 -23.80844453 282.12631658 -25.21362305 282.12698364 C-26.57661026 282.13121338 -26.57661026 282.13121338 -27.96713257 282.13552856 C-29.47420273 282.13249222 -29.47420273 282.13249222 -31.01171875 282.12939453 C-32.0636441 282.13114685 -33.11556946 282.13289917 -34.19937134 282.13470459 C-37.69543074 282.13912543 -41.19144003 282.13618429 -44.6875 282.1328125 C-47.10506195 282.13348547 -49.52262383 282.13445544 -51.94018555 282.13571167 C-57.01449221 282.13718896 -62.08878131 282.13503309 -67.16308594 282.13037109 C-73.68384703 282.1246738 -80.20456696 282.12795263 -86.72532654 282.13394356 C-91.71968906 282.13754833 -96.71404174 282.13641097 -101.70840454 282.13381577 C-104.11349492 282.13314626 -106.51858618 282.13397572 -108.92367554 282.13629532 C-112.27856835 282.13882048 -115.6333935 282.13498317 -118.98828125 282.12939453 C-119.99299469 282.13141876 -120.99770813 282.13344299 -122.03286743 282.13552856 C-122.94152557 282.13270874 -123.85018372 282.12988892 -124.78637695 282.12698364 C-125.58058548 282.12660662 -126.37479401 282.12622959 -127.19306946 282.12584114 C-129 282 -129 282 -130 281 C-130.08790975 278.70848583 -130.10694038 276.41427476 -130.09765625 274.12109375 C-130.09515869 272.86482178 -130.09266113 271.6085498 -130.09008789 270.31420898 C-130.08098389 268.70489502 -130.07187988 267.09558105 -130.0625 265.4375 C-130.041875 260.343125 -130.02125 255.24875 -130 250 C-117.13 250 -104.26 250 -91 250 C-91 240.43 -91 230.86 -91 221 C-94.63 220.67 -98.26 220.34 -102 220 C-104.75109043 219.41643536 -107.32645303 218.811016 -110 218 C-110.70930664 217.78633789 -111.41861328 217.57267578 -112.14941406 217.35253906 C-130.8750916 211.40438267 -146.84455585 201.55406907 -161 188 C-161.80953125 187.26523438 -162.6190625 186.53046875 -163.453125 185.7734375 C-185.64219353 164.91013092 -197.62857189 134.04284693 -199 104 C-199.04125 103.23042969 -199.0825 102.46085937 -199.125 101.66796875 C-199.96706709 70.77463223 -188.82168828 41.4091602 -169 18 C-168.28457031 17.12601563 -167.56914062 16.25203125 -166.83203125 15.3515625 C-146.75085241 -8.1269347 -115.86053057 -22.20115992 -85.34204102 -24.84106445 C-54.84055943 -26.91095547 -24.23364211 -18.97118706 0 0 Z M-134 28 C-134.81339844 28.66773437 -135.62679687 29.33546875 -136.46484375 30.0234375 C-151.24729194 42.64204505 -160.19344149 59.34484221 -165 78 C-165.53367188 79.81177734 -165.53367188 79.81177734 -166.078125 81.66015625 C-171.41541171 103.32265679 -165.16322635 128.83384537 -153.8125 147.625 C-138.74354255 169.80071468 -119.01220451 183.46187308 -93 190 C-69.1619173 194.42385223 -44.3394315 189.39620099 -24.09375 176.19140625 C-3.53983697 161.63238452 11.77977852 140.67071126 16.22192383 115.53710938 C19.97231509 90.05266933 14.87235562 67.14634096 0.6875 45.75 C-15.07589914 24.59012188 -35.91209129 11.61786528 -62 7 C-88.89119503 5.42019539 -113.04333878 10.28706548 -134 28 Z " fill="#658C99" transform="translate(331,50)"/>
<path d="M0 0 C10.56 0 21.12 0 32 0 C32 51.48 32 102.96 32 156 C21.44 156 10.88 156 0 156 C0 149.4 0 142.8 0 136 C-37.95 136 -75.9 136 -115 136 C-115 97.72 -115 59.44 -115 20 C-77.05 20 -39.1 20 0 20 C0 13.4 0 6.8 0 0 Z " fill="#E0D8E0" transform="translate(465,331)"/>
<path d="M0 0 C10.56 0 21.12 0 32 0 C32 6.6 32 13.2 32 20 C69.62 20 107.24 20 146 20 C146 58.28 146 96.56 146 136 C108.38 136 70.76 136 32 136 C32 142.6 32 149.2 32 156 C21.44 156 10.88 156 0 156 C0 104.52 0 53.04 0 0 Z " fill="#E0D8E0" transform="translate(15,331)"/>
<path d="M0 0 C10.56 0 21.12 0 32 0 C32 51.48 32 102.96 32 156 C21.44 156 10.88 156 0 156 C0 104.52 0 53.04 0 0 Z " fill="#1C8FC6" transform="translate(465,331)"/>
<path d="M0 0 C10.56 0 21.12 0 32 0 C32 51.48 32 102.96 32 156 C21.44 156 10.88 156 0 156 C0 104.52 0 53.04 0 0 Z " fill="#1C8FC6" transform="translate(15,331)"/>
<path d="M0 0 C2.65663512 1.02178274 3.72208759 1.69023332 5.4375 3.9375 C5.78239441 6.46652222 5.78239441 6.46652222 5.74291992 9.52294922 C5.73689255 10.66778778 5.73086517 11.81262634 5.72465515 12.99215698 C5.70594864 14.22966705 5.68724213 15.46717712 5.66796875 16.7421875 C5.66586959 19.35286382 5.6652649 21.96354169 5.66601562 24.57421875 C5.65494905 28.69810648 5.62742479 32.82129417 5.5715332 36.94482422 C5.51959358 40.9192394 5.53122589 44.89244019 5.54296875 48.8671875 C5.51414108 50.10064911 5.48531342 51.33411072 5.45561218 52.60494995 C5.29088416 58.70812493 5.29088416 58.70812493 8.17739868 63.74835205 C10.26130642 65.09661179 10.26130642 65.09661179 12.43818665 66.00418091 C16.82946513 68.05411672 19.64394508 72.54718947 21.4375 76.9375 C22.56985285 84.97285005 21.78199238 91.18899577 17.15234375 97.91015625 C14.8646083 100.6147911 12.5883648 102.32854776 9.4375 103.9375 C8.695 104.35 7.9525 104.7625 7.1875 105.1875 C1.37271967 106.77334918 -4.35820468 106.83077357 -9.875 104.25 C-15.5473946 100.98580512 -20.46708241 96.25719028 -22.5625 89.9375 C-23.54296915 82.82909866 -23.51550029 76.55503173 -19.12890625 70.65625 C-15.69838466 66.89208666 -12.44853622 63.56617874 -7.5625 61.9375 C-7.55885437 61.21975403 -7.55520874 60.50200806 -7.55145264 59.76251221 C-7.51356538 52.99408066 -7.45670452 46.22604493 -7.37859726 39.45796585 C-7.33910949 35.97846863 -7.3069279 32.49922495 -7.29150391 29.01953125 C-7.27344453 25.01781624 -7.22350019 21.01704876 -7.171875 17.015625 C-7.17064636 15.76759094 -7.16941772 14.51955688 -7.16815186 13.23370361 C-7.13857391 11.49235138 -7.13857391 11.49235138 -7.10839844 9.71582031 C-7.09951599 8.69433899 -7.09063354 7.67285767 -7.08148193 6.62042236 C-6.28936789 2.52551972 -4.32940325 -0.1055952 0 0 Z " fill="#114D5D" transform="translate(256.5625,110.0625)"/>
<path d="M0 0 C5.28 0 10.56 0 16 0 C16 38.28 16 76.56 16 116 C10.72 116 5.44 116 0 116 C0 77.72 0 39.44 0 0 Z " fill="#C0B7C3" transform="translate(350,351)"/>
<path d="M0 0 C5.28 0 10.56 0 16 0 C16 38.28 16 76.56 16 116 C10.72 116 5.44 116 0 116 C0 77.72 0 39.44 0 0 Z " fill="#C1B8C3" transform="translate(46,351)"/>
<path d="M0 0 C3.4375 0.875 3.4375 0.875 5.4375 3.875 C5.69476891 5.98211575 5.69476891 5.98211575 5.70492554 8.46080017 C5.71345551 9.40152878 5.72198547 10.34225739 5.73077393 11.31149292 C5.72941437 12.85681198 5.72941437 12.85681198 5.72802734 14.43334961 C5.73810318 16.06296883 5.73810318 16.06296883 5.74838257 17.72550964 C5.76742124 21.32616719 5.77128962 24.92663896 5.7734375 28.52734375 C5.77986088 31.02454201 5.78658889 33.5217395 5.79360962 36.01893616 C5.80559675 41.25702117 5.80937442 46.49505886 5.80810547 51.7331543 C5.80690365 57.78685891 5.82801298 63.84020722 5.8595928 69.89382166 C5.88889545 75.71854665 5.89608165 81.54313052 5.89488602 87.36792183 C5.89725053 89.84590676 5.9061215 92.32389417 5.92155075 94.8018322 C5.94109068 98.26394314 5.93541946 101.72513085 5.92333984 105.18725586 C5.93457886 106.21544434 5.94581787 107.24363281 5.95739746 108.30297852 C5.89601112 115.20739436 5.89601112 115.20739436 3.60244751 118.54689026 C1.4375 119.875 1.4375 119.875 -1.6875 119.8125 C-4.5625 118.875 -4.5625 118.875 -6.5625 115.875 C-6.81697559 113.74947357 -6.81697559 113.74947357 -6.82319641 111.24450684 C-6.83028122 110.29391891 -6.83736603 109.34333099 -6.84466553 108.36393738 C-6.84218811 107.32280289 -6.83971069 106.2816684 -6.8371582 105.20898438 C-6.84226913 104.1112117 -6.84738007 103.01343903 -6.85264587 101.88240051 C-6.86657516 98.24446195 -6.86558273 94.6067121 -6.86328125 90.96875 C-6.86716601 88.44673593 -6.87150022 85.92472252 -6.87626648 83.40270996 C-6.88373564 78.11333832 -6.8835699 72.82403633 -6.87817383 67.53466797 C-6.87213033 61.41851851 -6.88445416 55.30259888 -6.9057439 49.18648863 C-6.92546792 43.30410796 -6.92853568 37.42179868 -6.92500877 31.53938293 C-6.92552345 29.03546102 -6.93078842 26.53153554 -6.94082069 24.02763367 C-6.95310841 20.53191224 -6.94643952 17.03672796 -6.93481445 13.54101562 C-6.94245819 12.49988113 -6.95010193 11.45874664 -6.95797729 10.38606262 C-6.95096298 9.4354747 -6.94394867 8.48488678 -6.9367218 7.50549316 C-6.93688954 6.67885414 -6.93705729 5.85221512 -6.93723011 5.00052643 C-6.16240878 0.60562146 -4.26883234 -0.14978359 0 0 Z " fill="#47A4D1" transform="translate(185.5625,349.125)"/>
<path d="M0 0 C10.56 0 21.12 0 32 0 C32 9.57 32 19.14 32 29 C21.44 29 10.88 29 0 29 C0 19.43 0 9.86 0 0 Z " fill="#5B7E88" transform="translate(240,271)"/>
<path d="M0 0 C2.65935906 1.02283041 3.72142989 1.68676354 5.4375 3.9375 C5.79826355 6.50016785 5.79826355 6.50016785 5.77807617 9.60229492 C5.77784958 10.76327194 5.77762299 11.92424896 5.77738953 13.1204071 C5.76190567 14.37360245 5.74642181 15.62679779 5.73046875 16.91796875 C5.72622391 18.20109451 5.72197906 19.48422028 5.71760559 20.80622864 C5.70616162 24.21436138 5.67669896 27.6221094 5.64349365 31.03009033 C5.61278272 34.50893957 5.59909811 37.98785109 5.58398438 41.46679688 C5.55182828 48.29053838 5.49906434 55.1139611 5.4375 61.9375 C1.4775 61.9375 -2.4825 61.9375 -6.5625 61.9375 C-6.65291248 54.4443918 -6.72627984 46.951487 -6.76974869 39.45796585 C-6.79061308 35.9782813 -6.81890821 32.49898967 -6.86425781 29.01953125 C-6.91608227 25.01819107 -6.93545453 21.01726281 -6.953125 17.015625 C-6.97377014 15.76759094 -6.99441528 14.51955688 -7.01568604 13.23370361 C-7.01598816 12.07280212 -7.01629028 10.91190063 -7.01660156 9.71582031 C-7.02548401 8.69433899 -7.03436646 7.67285767 -7.04351807 6.62042236 C-6.30660674 2.51023189 -4.32695744 -0.10553555 0 0 Z " fill="#688E9B" transform="translate(256.5625,110.0625)"/>
<path d="M0 0 C2.06675565 1.56108274 2.89207395 2.46010893 3.40405273 5.02124023 C3.43599379 7.49442844 3.45781921 9.96409777 3.4375 12.4375 C3.45748047 13.29666016 3.47746094 14.15582031 3.49804688 15.04101562 C3.49319146 21.2996471 3.49319146 21.2996471 1.16796875 24.6015625 C-1 26 -1 26 -4.125 25.9375 C-7 25 -7 25 -9 22 C-9.42505754 18.84739543 -9.32430625 15.67824228 -9.3125 12.5 C-9.32861328 11.63246094 -9.34472656 10.76492187 -9.36132812 9.87109375 C-9.36197266 9.03707031 -9.36261719 8.20304687 -9.36328125 7.34375 C-9.36626221 6.58255859 -9.36924316 5.82136719 -9.37231445 5.03710938 C-8.41510918 -0.20021572 -4.70107051 -0.58763381 0 0 Z " fill="#6A8F9C" transform="translate(259,70)"/>
<path d="M0 0 C0.82951172 -0.00386719 1.65902344 -0.00773438 2.51367188 -0.01171875 C3.37669922 -0.00011719 4.23972656 0.01148438 5.12890625 0.0234375 C5.98806641 0.01183594 6.84722656 0.00023437 7.73242188 -0.01171875 C14.0421172 0.01765144 14.0421172 0.01765144 17.2890625 1.921875 C17.75183594 2.40914062 18.21460938 2.89640625 18.69140625 3.3984375 C18.37890625 6.7734375 18.37890625 6.7734375 17.69140625 10.3984375 C13.63785307 13.10080628 10.51235369 12.76591426 5.75390625 12.7734375 C4.94244141 12.79792969 4.13097656 12.82242188 3.29492188 12.84765625 C-2.65653308 12.87694971 -2.65653308 12.87694971 -5.84765625 10.53515625 C-7.66289109 7.88025396 -7.87463134 6.55207551 -7.30859375 3.3984375 C-5.08927945 0.52749842 -3.57679878 0.01603432 0 0 Z " fill="#6A8F9C" transform="translate(316.30859375,142.6015625)"/>
<path d="M0 0 C0.82951172 -0.00386719 1.65902344 -0.00773438 2.51367188 -0.01171875 C3.37669922 -0.00011719 4.23972656 0.01148438 5.12890625 0.0234375 C5.98806641 0.01183594 6.84722656 0.00023437 7.73242188 -0.01171875 C14.0421172 0.01765144 14.0421172 0.01765144 17.2890625 1.921875 C17.75183594 2.40914062 18.21460938 2.89640625 18.69140625 3.3984375 C18.37890625 6.7734375 18.37890625 6.7734375 17.69140625 10.3984375 C13.63785307 13.10080628 10.51235369 12.76591426 5.75390625 12.7734375 C4.94244141 12.79792969 4.13097656 12.82242188 3.29492188 12.84765625 C-2.65653308 12.87694971 -2.65653308 12.87694971 -5.84765625 10.53515625 C-7.66289109 7.88025396 -7.87463134 6.55207551 -7.30859375 3.3984375 C-5.08927945 0.52749842 -3.57679878 0.01603432 0 0 Z " fill="#6A8F9C" transform="translate(184.30859375,142.6015625)"/>
<path d="M0 0 C3.96625343 1.13390457 6.2256092 3.15686878 9.0234375 6.04296875 C9.51263672 6.50445312 10.00183594 6.9659375 10.50585938 7.44140625 C14.08275977 11.04304316 15.03628264 13.89513585 15.2109375 18.91796875 C14.2109375 20.91796875 14.2109375 20.91796875 12.2109375 21.91796875 C6.32009713 21.71313138 3.27153413 19.90242104 -0.6640625 15.73046875 C-1.14875 15.26060547 -1.6334375 14.79074219 -2.1328125 14.30664062 C-5.33811627 11.02523328 -6.65393071 8.51244955 -6.7890625 3.91796875 C-4.76462447 0.75984542 -3.79397299 -0.11158744 0 0 Z " fill="#6A8F9C" transform="translate(204.7890625,91.08203125)"/>
<path d="M0 0 C2 2 2 2 2.44140625 5.2578125 C1.90210783 9.82991771 0.16505873 11.85417379 -3.0625 14.875 C-3.76149414 15.60203125 -3.76149414 15.60203125 -4.47460938 16.34375 C-8.09313248 19.86873305 -11.00334465 20.82583773 -16 21 C-17.9375 19.9375 -17.9375 19.9375 -19 18 C-19.47074466 15.03982185 -19.65019291 12.94627452 -17.90307617 10.40356445 C-16.37464275 8.74765493 -14.7843368 7.21203942 -13.125 5.6875 C-12.29162109 4.8821582 -12.29162109 4.8821582 -11.44140625 4.06054688 C-5.58411873 -1.53563265 -5.58411873 -1.53563265 0 0 Z " fill="#698F9B" transform="translate(311,92)"/>
<path d="M0 0 C3.0625 0.3125 3.0625 0.3125 5 1.375 C6.69817223 4.471667 5.73458506 6.91725162 5.0625 10.3125 C3.6875 13.8046875 3.6875 13.8046875 2.0625 17.1875 C1.52625 18.31929687 0.99 19.45109375 0.4375 20.6171875 C-0.9375 23.3125 -0.9375 23.3125 -1.9375 24.3125 C-5.375 24.5 -5.375 24.5 -8.9375 24.3125 C-10.9375 22.3125 -10.9375 22.3125 -11.2421875 19.11328125 C-10.90855907 14.9514804 -9.88237629 12.23988931 -8.0625 8.5 C-7.26199219 6.81970703 -7.26199219 6.81970703 -6.4453125 5.10546875 C-3.91385359 0.4163674 -3.91385359 0.4163674 0 0 Z " fill="#688E9B" transform="translate(283.9375,75.6875)"/>
<path d="M0 0 C7.77691555 0.1234431 16.35237208 2.35237208 22 8 C22.32954432 11.09771665 22.45334601 13.17331023 20.9375 15.9375 C17.840833 17.63567223 15.39524838 16.67208506 12 16 C8.5078125 14.625 8.5078125 14.625 5.125 13 C3.99320312 12.46375 2.86140625 11.9275 1.6953125 11.375 C-1 10 -1 10 -2 9 C-2.1875 5.5625 -2.1875 5.5625 -2 2 C-1.34 1.34 -0.68 0.68 0 0 Z " fill="#688E9B" transform="translate(307,166)"/>
<path d="M0 0 C1.455276 2.91055201 1.45067148 4.78091798 1 8 C-1.08414115 9.86475787 -2.53543218 10.81407925 -5 12 C-5.78503906 12.38542969 -6.57007813 12.77085937 -7.37890625 13.16796875 C-12.73704491 15.56481551 -16.29316796 16.57848546 -22 15 C-23 14 -23 14 -23.4375 10.6875 C-23 7 -23 7 -20.625 4.8125 C-19.4381434 4.16716426 -18.22576087 3.56797632 -17 3 C-16.21496094 2.61585937 -15.42992187 2.23171875 -14.62109375 1.8359375 C-9.30401635 -0.55065907 -5.65960945 -1.68584111 0 0 Z " fill="#688E9B" transform="translate(328,116)"/>
<path d="M0 0 C3.4921875 1.375 3.4921875 1.375 6.875 3 C8.57269531 3.804375 8.57269531 3.804375 10.3046875 4.625 C13 6 13 6 14 7 C14.25 10.4375 14.25 10.4375 14 14 C10.45585505 16.3627633 9.17766898 16.39354853 5 16 C1.640625 14.7578125 1.640625 14.7578125 -1.75 13.125 C-2.87921875 12.59132812 -4.0084375 12.05765625 -5.171875 11.5078125 C-8 10 -8 10 -10 8 C-10.32954432 4.90228335 -10.45334601 2.82668977 -8.9375 0.0625 C-5.840833 -1.63567223 -3.39524838 -0.67208506 0 0 Z " fill="#688E9B" transform="translate(193,116)"/>
<path d="M0 0 C2 2 2 2 2.3125 4.9375 C2 8 2 8 0.91015625 9.48828125 C-1.77809638 11.61579407 -4.7476043 12.9106164 -7.875 14.25 C-8.48730469 14.53101563 -9.09960938 14.81203125 -9.73046875 15.1015625 C-13.53011869 16.74509416 -16.05765134 17.44128876 -20 16 C-22 14 -22 14 -22.4375 11.125 C-22 8 -22 8 -20.125 5.875 C-13.79158068 2.07494841 -7.49266274 -0.93658284 0 0 Z " fill="#688E9A" transform="translate(205,166)"/>
<path d="M0 0 C3.05870469 2.33530923 4.2253406 5.3217591 5.6875 8.8125 C6.12449219 9.82957031 6.56148437 10.84664062 7.01171875 11.89453125 C8.04627464 15.14540846 8.26139457 17.61155189 8 21 C6.9375 22.9375 6.9375 22.9375 5 24 C1.625 24.01953125 1.625 24.01953125 -2 23 C-3.75442281 20.4627395 -4.81406926 18.54410642 -5.9375 15.75 C-6.23978516 15.08097656 -6.54207031 14.41195312 -6.85351562 13.72265625 C-8.43879935 10.06320311 -9.49103137 6.99421039 -9 3 C-6.73529086 -0.64869805 -4.03159541 -0.50394943 0 0 Z " fill="#688D9A" transform="translate(231,76)"/>
<path d="M0 0 C1.9375 1.0625 1.9375 1.0625 3 3 C3.36528977 6.4093712 3.6140629 8.88023824 1.9375 11.9375 C-1.11976176 13.6140629 -3.5906288 13.36528977 -7 13 C-8.9375 11.9375 -8.9375 11.9375 -10 10 C-10.36528977 6.5906288 -10.6140629 4.11976176 -8.9375 1.0625 C-5.88023824 -0.6140629 -3.4093712 -0.36528977 0 0 Z " fill="#3D6E7C" transform="translate(251,180)"/>
</svg>
