<?xml version="1.0" encoding="UTF-8"?>
<svg version="1.1" xmlns="http://www.w3.org/2000/svg" width="512" height="512">
<path d="M0 0 C1.2999462 -0.00782324 1.2999462 -0.00782324 2.62615395 -0.01580453 C4.06280183 -0.00911236 4.06280183 -0.00911236 5.5284729 -0.002285 C6.5414916 -0.00540498 7.55451031 -0.00852497 8.59822655 -0.01173949 C12.01464928 -0.01975798 15.43089629 -0.01338088 18.84732056 -0.00710678 C21.28769027 -0.00981493 23.72805917 -0.01337487 26.16842651 -0.0177269 C32.12188226 -0.0259228 38.07526826 -0.02469153 44.02872133 -0.01890162 C48.86561783 -0.01439164 53.70250019 -0.01376934 58.53939819 -0.01594925 C59.57055994 -0.01640895 59.57055994 -0.01640895 60.62255323 -0.01687793 C62.0189147 -0.01751736 63.41527617 -0.01816579 64.81163764 -0.01882312 C77.91673767 -0.02453127 91.02180976 -0.01796092 104.1269052 -0.00722238 C115.38072953 0.00171357 126.6345126 0.00016167 137.88833618 -0.00905991 C150.94535566 -0.01975398 164.00235061 -0.02398191 177.05937386 -0.01783538 C178.45070521 -0.01719826 179.84203656 -0.01656951 181.23336792 -0.01594925 C182.26030984 -0.01548642 182.26030984 -0.01548642 183.30799806 -0.01501425 C188.14115954 -0.01328471 192.97430552 -0.01620796 197.8074646 -0.02090836 C204.30806506 -0.0270912 210.80859941 -0.02271268 217.30919647 -0.01111984 C219.7013918 -0.00846515 222.09359367 -0.00925203 224.48578644 -0.01364517 C227.73871231 -0.01907024 230.99138377 -0.01230359 234.24429321 -0.002285 C235.20205847 -0.00674645 236.15982372 -0.01120789 237.14661217 -0.01580453 C238.01324297 -0.01058903 238.87987377 -0.00537354 239.77276611 0 C240.52428766 0.0003247 241.27580921 0.00064941 242.05010414 0.00098395 C243.88638306 0.25168228 243.88638306 0.25168228 245.88638306 2.25168228 C246.11343384 5.23263931 246.11343384 5.23263931 246.08169556 9.00949478 C246.07745071 10.00407196 246.07745071 10.00407196 246.07312012 11.01874161 C246.06191741 13.13823811 246.03681356 15.25731332 246.01138306 17.37668228 C246.00135333 18.8128741 245.99222747 20.24907253 245.98403931 21.68527603 C245.96197806 25.20754856 245.92744799 28.72957432 245.88638306 32.25168228 C246.87380493 32.22847916 247.86122681 32.20527603 248.87857056 32.18136978 C250.15989868 32.16332291 251.44122681 32.14527603 252.76138306 32.12668228 C254.03755493 32.10347916 255.31372681 32.08027603 256.62857056 32.05636978 C259.88638306 32.25168228 259.88638306 32.25168228 261.88638306 34.25168228 C262.14517212 37.38449478 262.14517212 37.38449478 262.15200806 41.37668228 C262.15392151 42.07938248 262.15583496 42.78208267 262.1578064 43.50607681 C262.15916781 44.99224582 262.15547438 46.47842673 262.14712524 47.96457291 C262.13642459 50.24283874 262.14702145 52.52031605 262.15982056 54.79855728 C262.15849895 56.24126736 262.15593654 57.68397695 262.15200806 59.12668228 C262.1497522 60.44410416 262.14749634 61.76152603 262.14517212 63.11886978 C261.88638306 66.25168228 261.88638306 66.25168228 259.88638306 68.25168228 C255.26638306 68.25168228 250.64638306 68.25168228 245.88638306 68.25168228 C245.88638306 95.97168228 245.88638306 123.69168228 245.88638306 152.25168228 C263.04638306 152.25168228 280.20638306 152.25168228 297.88638306 152.25168228 C297.72927799 139.76291245 297.72927799 139.76291245 297.52603149 127.27487564 C297.26887815 103.42330795 305.21803628 83.02006664 321.69107056 65.48605728 C322.41552368 64.74871353 323.13997681 64.01136978 323.88638306 63.25168228 C324.48708618 62.63808853 325.08778931 62.02449478 325.70669556 61.39230728 C344.70619947 43.46203952 368.57415603 39.35272816 393.72622681 40.06808853 C400.46429962 40.45954641 406.52129321 42.02024274 412.88638306 44.25168228 C413.94599243 44.61390884 415.00560181 44.97613541 416.09732056 45.34933853 C427.99048822 49.85895866 437.87453902 57.39738796 446.88638306 66.25168228 C447.49997681 66.85238541 448.11357056 67.45308853 448.74575806 68.07199478 C461.24698681 81.31870966 470.01645207 100.77155934 470.00943089 119.09684944 C470.01142193 120.24786609 470.01341298 121.39888273 470.01546437 122.58477867 C470.01255152 123.83964171 470.00963868 125.09450475 470.00663757 126.38739395 C470.00707385 127.74138221 470.00794979 129.09537038 470.00922674 130.44935811 C470.01146068 134.16412747 470.00746546 137.87886796 470.00244868 141.59363365 C469.99812857 145.60174559 469.99959171 149.6098559 470.00035095 153.61796951 C470.0008752 160.56036006 469.99773877 167.50274121 469.99211311 174.44512939 C469.98398466 184.48264633 469.98138151 194.52015872 469.98012512 204.5576786 C469.97793672 220.84305219 469.97128237 237.12842078 469.96182251 253.41379166 C469.95264292 269.23312734 469.94556476 285.05246166 469.9413147 300.87179947 C469.94092061 302.33455629 469.94092061 302.33455629 469.94051857 303.82686375 C469.93921352 308.71903124 469.93794982 313.61119873 469.93670666 318.50336623 C469.92634065 359.08614173 469.90872808 399.66891172 469.88638306 440.25168228 C470.87380493 440.22847916 471.86122681 440.20527603 472.87857056 440.18136978 C474.15989868 440.16332291 475.44122681 440.14527603 476.76138306 440.12668228 C478.03755493 440.10347916 479.31372681 440.08027603 480.62857056 440.05636978 C483.88638306 440.25168228 483.88638306 440.25168228 485.88638306 442.25168228 C486.14517212 445.38449478 486.14517212 445.38449478 486.15200806 449.37668228 C486.15392151 450.07938248 486.15583496 450.78208267 486.1578064 451.50607681 C486.15916781 452.99224582 486.15547438 454.47842673 486.14712524 455.96457291 C486.13642459 458.24283874 486.14702145 460.52031605 486.15982056 462.79855728 C486.15849895 464.24126736 486.15593654 465.68397695 486.15200806 467.12668228 C486.1497522 468.44410416 486.14749634 469.76152603 486.14517212 471.11886978 C485.88638306 474.25168228 485.88638306 474.25168228 483.88638306 476.25168228 C481.14918608 476.44899636 478.51315176 476.51933718 475.77471924 476.50336456 C474.92207041 476.50627144 474.06942157 476.50917833 473.1909349 476.5121733 C470.30240119 476.51953586 467.41407576 476.51250102 464.52554321 476.50564957 C462.44634199 476.50795153 460.36714158 476.51112626 458.28794289 476.51510406 C452.54990771 476.52349705 446.81193858 476.51930646 441.07390308 476.51313162 C434.89524182 476.50862644 428.71659231 476.51558123 422.53793335 476.52109146 C411.12530624 476.52949186 399.71270622 476.5287342 388.30007976 476.52326852 C377.75830896 476.51824448 367.21654593 476.5169207 356.67477417 476.51931381 C355.97648312 476.51946658 355.27819207 476.51961935 354.55874069 476.51977675 C351.72440435 476.52039939 348.89006802 476.52103619 346.05573169 476.52169628 C319.44808614 476.5278192 292.84045411 476.52225957 266.23281065 476.51150249 C242.57500984 476.50201073 218.91723055 476.50285996 195.25942993 476.51242447 C168.70155952 476.52312545 142.14370105 476.52738502 115.58582878 476.52119994 C112.75654984 476.52055847 109.92727089 476.51993279 107.09799194 476.51931381 C106.05297195 476.51907658 106.05297195 476.51907658 104.98684044 476.51883456 C94.44970961 476.51655618 83.9125874 476.51922653 73.37545776 476.52427292 C61.39855791 476.52998011 49.4216835 476.52839264 37.44478464 476.51771143 C31.32820345 476.51243724 25.21166606 476.51042753 19.09508514 476.51700974 C13.50428509 476.52293536 7.91356979 476.51975058 2.32277751 476.50905463 C0.29186041 476.50680612 -1.73906374 476.50798899 -3.76997638 476.51280621 C-6.51407286 476.51881966 -9.2578726 476.51271978 -12.00195312 476.50336456 C-13.20609969 476.51038806 -13.20609969 476.51038806 -14.43457246 476.51755345 C-19.8853162 476.47998302 -19.8853162 476.47998302 -22.11361694 474.25168228 C-22.37240601 471.11886978 -22.37240601 471.11886978 -22.37924194 467.12668228 C-22.3811554 466.42398209 -22.38306885 465.72128189 -22.38504028 464.99728775 C-22.3864017 463.51111874 -22.38270827 462.02493783 -22.37435913 460.53879166 C-22.36365848 458.26052583 -22.37425534 455.98304851 -22.38705444 453.70480728 C-22.38573284 452.2620972 -22.38317043 450.81938762 -22.37924194 449.37668228 C-22.37698608 448.05926041 -22.37473022 446.74183853 -22.37240601 445.38449478 C-22.11361694 442.25168228 -22.11361694 442.25168228 -20.11361694 440.25168228 C-15.49361694 440.25168228 -10.87361694 440.25168228 -6.11361694 440.25168228 C-6.11361694 317.49168228 -6.11361694 194.73168228 -6.11361694 68.25168228 C-10.73361694 68.25168228 -15.35361694 68.25168228 -20.11361694 68.25168228 C-23.01803353 65.3472657 -22.3722943 63.18410383 -22.37924194 59.12668228 C-22.3811554 58.42398209 -22.38306885 57.72128189 -22.38504028 56.99728775 C-22.3864017 55.51111874 -22.38270827 54.02493783 -22.37435913 52.53879166 C-22.36365848 50.26052583 -22.37425534 47.98304851 -22.38705444 45.70480728 C-22.38573284 44.2620972 -22.38317043 42.81938762 -22.37924194 41.37668228 C-22.37698608 40.05926041 -22.37473022 38.74183853 -22.37240601 37.38449478 C-22.11361694 34.25168228 -22.11361694 34.25168228 -20.11361694 32.25168228 C-16.85580444 32.05636978 -16.85580444 32.05636978 -12.98861694 32.12668228 C-11.06662476 32.15375259 -11.06662476 32.15375259 -9.10580444 32.18136978 C-7.62467163 32.21617447 -7.62467163 32.21617447 -6.11361694 32.25168228 C-6.12409058 31.35336685 -6.13456421 30.45505142 -6.14535522 29.52951431 C-6.17941165 26.20103781 -6.20450312 22.87274606 -6.22348022 19.54416275 C-6.23354657 18.10272681 -6.24720075 16.66131133 -6.26449585 15.219944 C-6.28871706 13.14974295 -6.30009336 11.07981152 -6.30892944 9.00949478 C-6.31940308 7.76313248 -6.32987671 6.51677017 -6.34066772 5.23263931 C-5.98594917 0.57552801 -4.26256253 0.0018417 0 0 Z M5.88638306 12.25168228 C5.88638306 18.85168228 5.88638306 25.45168228 5.88638306 32.25168228 C17.76638306 32.25168228 29.64638306 32.25168228 41.88638306 32.25168228 C41.88638306 25.65168228 41.88638306 19.05168228 41.88638306 12.25168228 C30.00638306 12.25168228 18.12638306 12.25168228 5.88638306 12.25168228 Z M53.88638306 12.25168228 C53.88638306 18.85168228 53.88638306 25.45168228 53.88638306 32.25168228 C65.76638306 32.25168228 77.64638306 32.25168228 89.88638306 32.25168228 C89.88638306 25.65168228 89.88638306 19.05168228 89.88638306 12.25168228 C78.00638306 12.25168228 66.12638306 12.25168228 53.88638306 12.25168228 Z M101.88638306 12.25168228 C101.88638306 18.85168228 101.88638306 25.45168228 101.88638306 32.25168228 C113.76638306 32.25168228 125.64638306 32.25168228 137.88638306 32.25168228 C137.88638306 25.65168228 137.88638306 19.05168228 137.88638306 12.25168228 C126.00638306 12.25168228 114.12638306 12.25168228 101.88638306 12.25168228 Z M149.88638306 12.25168228 C149.88638306 18.85168228 149.88638306 25.45168228 149.88638306 32.25168228 C161.76638306 32.25168228 173.64638306 32.25168228 185.88638306 32.25168228 C185.88638306 25.65168228 185.88638306 19.05168228 185.88638306 12.25168228 C174.00638306 12.25168228 162.12638306 12.25168228 149.88638306 12.25168228 Z M197.88638306 12.25168228 C197.88638306 18.85168228 197.88638306 25.45168228 197.88638306 32.25168228 C209.76638306 32.25168228 221.64638306 32.25168228 233.88638306 32.25168228 C233.88638306 25.65168228 233.88638306 19.05168228 233.88638306 12.25168228 C222.00638306 12.25168228 210.12638306 12.25168228 197.88638306 12.25168228 Z " fill="#000000" transform="translate(24.113616943359375,17.74831771850586)"/>
<path d="M0 0 C48.84 0 97.68 0 148 0 C148 122.76 148 245.52 148 372 C99.16 372 50.32 372 0 372 C0 249.24 0 126.48 0 0 Z " fill="#728EE7" transform="translate(110,86)"/>
<path d="M0 0 C22.44 0 44.88 0 68 0 C68 101.64 68 203.28 68 308 C45.56 308 23.12 308 0 308 C0 206.36 0 104.72 0 0 Z " fill="#738FE8" transform="translate(414,150)"/>
<path d="M0 0 C17.16 0 34.32 0 52 0 C52 91.08 52 182.16 52 276 C34.84 276 17.68 276 0 276 C0 184.92 0 93.84 0 0 Z " fill="#FFE664" transform="translate(270,182)"/>
<path d="M0 0 C14.79384784 11.75706929 25.87890934 25.89293661 30.07421875 44.6484375 C30.07421875 47.9484375 30.07421875 51.2484375 30.07421875 54.6484375 C-18.10578125 54.6484375 -66.28578125 54.6484375 -115.92578125 54.6484375 C-115.92578125 37.54038416 -109.27379499 23.37457815 -97.92578125 10.6484375 C-97.29800781 9.93816406 -96.67023438 9.22789063 -96.0234375 8.49609375 C-71.26118834 -17.88658889 -28.97949968 -20.86523977 0 0 Z " fill="#7C6E80" transform="translate(450.92578125,83.3515625)"/>
<path d="M0 0 C6.6 0 13.2 0 20 0 C20 122.76 20 245.52 20 372 C13.4 372 6.8 372 0 372 C0 249.24 0 126.48 0 0 Z " fill="#738FE8" transform="translate(30,86)"/>
<path d="M0 0 C6.6 0 13.2 0 20 0 C20 101.64 20 203.28 20 308 C13.4 308 6.8 308 0 308 C0 206.36 0 104.72 0 0 Z " fill="#738FE8" transform="translate(334,150)"/>
<path d="M0 0 C159.72 0 319.44 0 484 0 C484 3.96 484 7.92 484 12 C324.28 12 164.56 12 0 12 C0 8.04 0 4.08 0 0 Z " fill="#8B7D8F" transform="translate(14,470)"/>
<path d="M0 0 C9.34704515 6.58264127 15.41800378 15.86363315 18 27 C19.26109157 39.6640143 17.35727591 50.35958131 9.75 60.875 C2.76061834 69.12004979 -6.18879639 75.31370439 -17 77 C-31.28763916 78.00640414 -41.84055594 75.25033282 -53 66 C-61.04508804 58.69282832 -65.45725342 48.42939996 -66.23828125 37.73828125 C-66.52954059 24.29436322 -62.63085319 14.03618719 -53.30859375 4.21875 C-37.97886232 -9.72383636 -17.43652761 -10.58646319 0 0 Z " fill="#EEF6F6" transform="translate(208,237)"/>
<path d="M0 0 C3.3 0 6.6 0 10 0 C10 122.76 10 245.52 10 372 C6.7 372 3.4 372 0 372 C0 249.24 0 126.48 0 0 Z " fill="#819BF2" transform="translate(30,86)"/>
<path d="M0 0 C11.134624 8.49407469 18.91210575 20.9357843 21.35546875 34.796875 C22.89313158 50.35135347 19.80437356 64.80792219 10.31640625 77.53125 C0.59703978 88.86478687 -11.65015445 96.16382406 -26.64453125 97.796875 C-43.35336578 98.93188492 -56.51506348 94.76730672 -69.33203125 84.046875 C-79.45409267 74.60318807 -85.99874804 61.9600206 -86.8828125 48.046875 C-87.33724939 30.65749947 -82.25272572 16.97432338 -70.25 4.1875 C-50.15996194 -14.24593822 -22.05331691 -15.24512897 0 0 Z M-64.95703125 16.171875 C-73.22292252 26.61546567 -75.364263 36.61200192 -74.64453125 49.796875 C-73.40243127 60.24101141 -67.39882996 69.90983338 -59.64453125 76.796875 C-48.02257482 84.89515315 -36.93391171 87.5240403 -22.8359375 85.3671875 C-12.73386191 82.74872951 -3.49060197 76.44206188 2.35546875 67.796875 C8.83232668 56.38526817 11.39118074 45.66885181 8.70703125 32.65234375 C4.0444633 18.72441643 -4.90094443 10.3938613 -17.6796875 3.99609375 C-34.44772678 -2.78623571 -53.12775536 3.16570686 -64.95703125 16.171875 Z " fill="#030305" transform="translate(216.64453125,228.203125)"/>
<path d="M0 0 C85.8 0 171.6 0 260 0 C260 3.96 260 7.92 260 12 C174.2 12 88.4 12 0 12 C0 8.04 0 4.08 0 0 Z " fill="#8B7D8F" transform="translate(14,62)"/>
<path d="M0 0 C3.3 0 6.6 0 10 0 C10 101.64 10 203.28 10 308 C6.7 308 3.4 308 0 308 C0 206.36 0 104.72 0 0 Z " fill="#819BF2" transform="translate(334,150)"/>
<path d="M0 0 C153.78 0 307.56 0 466 0 C466 1.98 466 3.96 466 6 C312.22 6 158.44 6 0 6 C0 4.02 0 2.04 0 0 Z " fill="#7D6F81" transform="translate(32,476)"/>
<path d="M0 0 C3.3 0 6.6 0 10 0 C10 91.08 10 182.16 10 276 C6.7 276 3.4 276 0 276 C0 184.92 0 93.84 0 0 Z " fill="#FFD656" transform="translate(270,182)"/>
<path d="M0 0 C6.05921123 1.74241567 8.37513234 7.91593994 11.28613281 13.15283203 C22.07521174 32.94827828 22.07521174 32.94827828 21.015625 42.8671875 C18.8458611 49.68307627 14.5407603 54.57746539 8.390625 58.1796875 C3.3156616 60.49776289 -1.51328919 60.85502244 -6.984375 59.8671875 C-14.1699512 57.07052858 -18.77964466 52.85797136 -21.984375 45.8671875 C-24.32863319 38.83441293 -23.33586659 32.42356169 -20.18994141 25.83959961 C-19.79210449 25.06495361 -19.39426758 24.29030762 -18.984375 23.4921875 C-18.58009277 22.67435791 -18.17581055 21.85652832 -17.75927734 21.01391602 C-6.99275285 -0.31119581 -6.99275285 -0.31119581 0 0 Z " fill="#050504" transform="translate(184.984375,242.1328125)"/>
<path d="M0 0 C5.30563673 4.2464891 10.32757309 8.83273052 15.09375 13.67578125 C14.76375 14.66578125 14.43375 15.65578125 14.09375 16.67578125 C13.27197266 15.93134766 13.27197266 15.93134766 12.43359375 15.171875 C-3.16956134 1.8013665 -22.34719754 -3.27390372 -42.65234375 -2.109375 C-61.35726502 0.08016428 -79.35979975 9.5669342 -91.22460938 24.31445312 C-98.12083478 33.56287944 -102.11570881 43.5136165 -104.90625 54.67578125 C-108.53625 54.67578125 -112.16625 54.67578125 -115.90625 54.67578125 C-116.81574498 39.21436658 -109.83696565 24.64803509 -99.96484375 12.984375 C-99.28550781 12.22253906 -98.60617187 11.46070312 -97.90625 10.67578125 C-97.27847656 9.96550781 -96.65070313 9.25523438 -96.00390625 8.5234375 C-71.18143517 -17.92340796 -29.066379 -20.73774348 0 0 Z " fill="#887A8C" transform="translate(450.90625,83.32421875)"/>
<path d="M0 0 C79.86 0 159.72 0 242 0 C242 1.98 242 3.96 242 6 C162.14 6 82.28 6 0 6 C0 4.02 0 2.04 0 0 Z " fill="#7D6F81" transform="translate(32,68)"/>
<path d="M0 0 C11.88 0 23.76 0 36 0 C36 6.6 36 13.2 36 20 C24.12 20 12.24 20 0 20 C0 13.4 0 6.8 0 0 Z " fill="#738FE8" transform="translate(366,438)"/>
<path d="M0 0 C11.88 0 23.76 0 36 0 C36 6.6 36 13.2 36 20 C24.12 20 12.24 20 0 20 C0 13.4 0 6.8 0 0 Z " fill="#738FE8" transform="translate(62,438)"/>
<path d="M0 0 C11.88 0 23.76 0 36 0 C36 6.6 36 13.2 36 20 C24.12 20 12.24 20 0 20 C0 13.4 0 6.8 0 0 Z " fill="#738FE8" transform="translate(366,406)"/>
<path d="M0 0 C11.88 0 23.76 0 36 0 C36 6.6 36 13.2 36 20 C24.12 20 12.24 20 0 20 C0 13.4 0 6.8 0 0 Z " fill="#738FE8" transform="translate(62,406)"/>
<path d="M0 0 C11.88 0 23.76 0 36 0 C36 6.6 36 13.2 36 20 C24.12 20 12.24 20 0 20 C0 13.4 0 6.8 0 0 Z " fill="#738FE8" transform="translate(366,374)"/>
<path d="M0 0 C11.88 0 23.76 0 36 0 C36 6.6 36 13.2 36 20 C24.12 20 12.24 20 0 20 C0 13.4 0 6.8 0 0 Z " fill="#738FE8" transform="translate(62,374)"/>
<path d="M0 0 C11.88 0 23.76 0 36 0 C36 6.6 36 13.2 36 20 C24.12 20 12.24 20 0 20 C0 13.4 0 6.8 0 0 Z " fill="#738FE8" transform="translate(366,342)"/>
<path d="M0 0 C11.88 0 23.76 0 36 0 C36 6.6 36 13.2 36 20 C24.12 20 12.24 20 0 20 C0 13.4 0 6.8 0 0 Z " fill="#738FE8" transform="translate(62,342)"/>
<path d="M0 0 C11.88 0 23.76 0 36 0 C36 6.6 36 13.2 36 20 C24.12 20 12.24 20 0 20 C0 13.4 0 6.8 0 0 Z " fill="#738FE8" transform="translate(366,310)"/>
<path d="M0 0 C11.88 0 23.76 0 36 0 C36 6.6 36 13.2 36 20 C24.12 20 12.24 20 0 20 C0 13.4 0 6.8 0 0 Z " fill="#738FE8" transform="translate(62,310)"/>
<path d="M0 0 C11.88 0 23.76 0 36 0 C36 6.6 36 13.2 36 20 C24.12 20 12.24 20 0 20 C0 13.4 0 6.8 0 0 Z " fill="#738FE8" transform="translate(366,278)"/>
<path d="M0 0 C11.88 0 23.76 0 36 0 C36 6.6 36 13.2 36 20 C24.12 20 12.24 20 0 20 C0 13.4 0 6.8 0 0 Z " fill="#738FE8" transform="translate(62,278)"/>
<path d="M0 0 C11.88 0 23.76 0 36 0 C36 6.6 36 13.2 36 20 C24.12 20 12.24 20 0 20 C0 13.4 0 6.8 0 0 Z " fill="#738FE8" transform="translate(366,246)"/>
<path d="M0 0 C11.88 0 23.76 0 36 0 C36 6.6 36 13.2 36 20 C24.12 20 12.24 20 0 20 C0 13.4 0 6.8 0 0 Z " fill="#738FE8" transform="translate(62,246)"/>
<path d="M0 0 C11.88 0 23.76 0 36 0 C36 6.6 36 13.2 36 20 C24.12 20 12.24 20 0 20 C0 13.4 0 6.8 0 0 Z " fill="#738FE8" transform="translate(366,214)"/>
<path d="M0 0 C11.88 0 23.76 0 36 0 C36 6.6 36 13.2 36 20 C24.12 20 12.24 20 0 20 C0 13.4 0 6.8 0 0 Z " fill="#738FE8" transform="translate(62,214)"/>
<path d="M0 0 C11.88 0 23.76 0 36 0 C36 6.6 36 13.2 36 20 C24.12 20 12.24 20 0 20 C0 13.4 0 6.8 0 0 Z " fill="#738FE8" transform="translate(366,182)"/>
<path d="M0 0 C11.88 0 23.76 0 36 0 C36 6.6 36 13.2 36 20 C24.12 20 12.24 20 0 20 C0 13.4 0 6.8 0 0 Z " fill="#738FE8" transform="translate(62,182)"/>
<path d="M0 0 C11.88 0 23.76 0 36 0 C36 6.6 36 13.2 36 20 C24.12 20 12.24 20 0 20 C0 13.4 0 6.8 0 0 Z " fill="#738FE8" transform="translate(366,150)"/>
<path d="M0 0 C11.88 0 23.76 0 36 0 C36 6.6 36 13.2 36 20 C24.12 20 12.24 20 0 20 C0 13.4 0 6.8 0 0 Z " fill="#738FE8" transform="translate(62,150)"/>
<path d="M0 0 C11.88 0 23.76 0 36 0 C36 6.6 36 13.2 36 20 C24.12 20 12.24 20 0 20 C0 13.4 0 6.8 0 0 Z " fill="#738FE8" transform="translate(62,118)"/>
<path d="M0 0 C11.88 0 23.76 0 36 0 C36 6.6 36 13.2 36 20 C24.12 20 12.24 20 0 20 C0 13.4 0 6.8 0 0 Z " fill="#738FE8" transform="translate(62,86)"/>
<path d="M0 0 C3.58468861 1.1948962 4.05530287 2.46222187 5.703125 5.72265625 C6.00734375 6.35042969 6.3115625 6.97820312 6.625 7.625 C6.93695313 8.22957031 7.24890625 8.83414062 7.5703125 9.45703125 C9.62277512 13.6061906 10.68471161 17.32134548 11 22 C9.77878679 25.59579444 8.97558832 27.41992046 5.6875 29.375 C2.52368264 30.11077148 0.23445528 30.4716914 -3 30 C-5.8125 27.5625 -5.8125 27.5625 -8 25 C-8.33 24.67 -8.66 24.34 -9 24 C-9 16.21955025 -5.70209484 5.70209484 0 0 Z " fill="#F6DE60" transform="translate(183,260)"/>
</svg>
