<?xml version="1.0" encoding="UTF-8"?>
<svg version="1.1" xmlns="http://www.w3.org/2000/svg" width="512" height="512">
<path d="M0 0 C1.77193474 -0.01489471 1.77193474 -0.01489471 3.57966614 -0.03009033 C6.80937596 -0.05423437 10.03894132 -0.0692052 13.26872492 -0.07811165 C15.29204431 -0.08399446 17.31534158 -0.09220812 19.33864975 -0.10112 C25.68501582 -0.12844231 32.03133069 -0.14778734 38.37775147 -0.15552378 C45.67402357 -0.16446983 52.96954343 -0.19950438 60.26558697 -0.25752497 C65.9244626 -0.30094473 71.58312808 -0.32094224 77.24216831 -0.32360601 C80.61300541 -0.32568956 83.9831342 -0.33722951 87.3537941 -0.37324524 C91.12315159 -0.40757348 94.89070345 -0.40355694 98.66015625 -0.390625 C99.75772751 -0.40905457 100.85529877 -0.42748413 101.98612976 -0.44647217 C111.1103761 -0.34901152 118.89431609 2.39975647 125.7256031 8.59682465 C132.31948389 15.53652014 134.52525731 21.88683855 135.21826172 31.32226562 C136.39904297 31.27585937 137.57982422 31.22945312 138.79638672 31.18164062 C140.35365306 31.14411613 141.9109468 31.1077167 143.46826172 31.07226562 C144.63421875 31.02199219 144.63421875 31.02199219 145.82373047 30.97070312 C146.95488281 30.95136719 146.95488281 30.95136719 148.10888672 30.93164062 C148.80014648 30.91069336 149.49140625 30.88974609 150.20361328 30.86816406 C153.29279546 31.56446543 154.38258899 32.76324041 156.21826172 35.32226562 C156.50457056 37.99316386 156.56677359 40.25283567 156.44091797 42.90429688 C156.42129557 44.40882889 156.40378406 45.91338965 156.38818359 47.41796875 C156.3428147 49.77641555 156.28093197 52.13075414 156.1809082 54.48754883 C155.98369399 59.61350639 155.96798852 64.32415047 157.21826172 69.32226562 C160.46883698 72.76477644 163.95770853 74.39215435 168.21826172 76.32226562 C180.0438783 85.61805134 186.33858513 99.9238827 189.21826172 114.32226562 C189.21826172 122.57226562 189.21826172 130.82226562 189.21826172 139.32226562 C217.26826172 139.32226562 245.31826172 139.32226562 274.21826172 139.32226562 C274.21826172 136.35226563 274.21826172 133.38226563 274.21826172 130.32226562 C276.2993428 125.78172508 276.2993428 125.78172508 279.21826172 124.32226562 C282.01552271 124.18668505 284.78667503 124.10956091 287.58544922 124.08398438 C288.41658234 124.07591263 289.24771545 124.06784088 290.10403442 124.05952454 C291.86425693 124.04568491 293.62450627 124.03496221 295.38476562 124.02709961 C298.07587502 124.0098769 300.76575891 123.96599025 303.45654297 123.921875 C305.16616935 123.91174885 306.87580617 123.9032325 308.58544922 123.89648438 C309.38973358 123.87897629 310.19401794 123.8614682 311.02267456 123.84342957 C314.52482541 123.85701757 316.78677538 124.03723756 319.7421875 125.98950195 C321.58842586 128.90726701 321.63137244 130.6469404 321.46826172 134.07226562 C321.43216797 135.05710938 321.39607422 136.04195312 321.35888672 137.05664062 C321.31248047 137.80429688 321.26607422 138.55195313 321.21826172 139.32226562 C322.04438965 139.31179199 322.87051758 139.30131836 323.72167969 139.29052734 C326.83413634 139.2561139 329.94649489 139.23120724 333.05908203 139.21240234 C335.04970808 139.19758972 337.04024609 139.17215571 339.03076172 139.14648438 C355.28981542 139.06436794 367.9912958 142.35561134 380.02685547 153.90820312 C391.78092339 166.85653463 391.63733587 181.49809156 391.40576172 198.00976562 C391.39068653 199.886708 391.37700314 201.7636621 391.36474609 203.640625 C391.33196758 208.20146543 391.28034226 212.76173378 391.21826172 217.32226562 C391.96591797 217.28746094 392.71357422 217.25265625 393.48388672 217.21679688 C394.46873047 217.18972656 395.45357422 217.16265625 396.46826172 217.13476562 C397.44279297 217.09996094 398.41732422 217.06515625 399.42138672 217.02929688 C402.6460309 217.36707385 403.92616969 218.06697324 406.21826172 220.32226562 C407.4288331 223.95397977 407.3994956 227.31274198 407.42138672 231.09570312 C407.42708679 231.85646149 407.43278687 232.61721985 407.43865967 233.40103149 C407.4480992 235.00985325 407.45463949 236.61869424 407.45849609 238.22753906 C407.46819873 240.68133478 407.49922952 243.13429152 407.53076172 245.58789062 C407.53729256 247.15298983 407.54254272 248.71809501 407.54638672 250.28320312 C407.55873352 251.01356781 407.57108032 251.7439325 407.58380127 252.49642944 C407.56445365 256.9490445 406.97222072 259.78637 404.21826172 263.32226562 C402.21826172 264.32226562 402.21826172 264.32226562 391.21826172 264.32226562 C391.21826172 305.90226562 391.21826172 347.48226563 391.21826172 390.32226562 C394.84826172 390.32226562 398.47826172 390.32226562 402.21826172 390.32226562 C406.21826172 393.32226562 406.21826172 393.32226562 407.21826172 396.32226562 C407.30806637 398.57624721 407.33583696 400.83285678 407.33178711 403.08862305 C407.33193314 403.77181107 407.33207916 404.45499908 407.33222961 405.15888977 C407.33153341 407.41520369 407.32375468 409.67143489 407.31591797 411.92773438 C407.31405275 413.49286351 407.31262934 415.05799324 407.31163025 416.62312317 C407.30781324 420.74129856 407.2979899 424.85943865 407.28692627 428.9776001 C407.27669463 433.18037437 407.27212887 437.38315436 407.26708984 441.5859375 C407.25636691 449.8313964 407.23930026 458.07682662 407.21826172 466.32226562 C408.00201172 466.44601562 408.78576172 466.56976563 409.59326172 466.69726562 C412.21826172 467.32226562 412.21826172 467.32226562 414.21826172 469.32226562 C414.43063064 472.30014978 414.52221821 475.1826261 414.51904297 478.16210938 C414.52332809 479.04000626 414.52761322 479.91790314 414.5320282 480.82240295 C414.53777672 482.68099097 414.53826793 484.5396015 414.53393555 486.39819336 C414.53077807 489.24501895 414.55421909 492.0908032 414.57958984 494.9375 C414.581863 496.74153514 414.58256626 498.54557309 414.58154297 500.34960938 C414.59535759 501.62939919 414.59535759 501.62939919 414.60945129 502.93504333 C414.56400062 508.72983898 414.56400062 508.72983898 413.21143913 511.04746497 C410.01914979 513.08919619 406.62561833 512.73189102 402.95510864 512.69978905 C401.6697889 512.70632953 401.6697889 512.70632953 400.3585031 512.71300215 C397.46150106 512.72402834 394.56496803 512.71350224 391.66796875 512.70321655 C389.58036618 512.70667021 387.49276543 512.71143279 385.40516853 512.71739829 C379.64849289 512.7299781 373.89196552 512.72370629 368.13528919 512.71443963 C361.93480716 512.70767794 355.7343514 512.71811601 349.53387451 512.72637939 C338.08248402 512.73897618 326.63116 512.73784542 315.17976981 512.72964499 C304.60195814 512.72210705 294.0241639 512.72012413 283.4463501 512.72371292 C282.74550022 512.72394208 282.04465034 512.72417123 281.32256259 512.72440733 C278.47779491 512.7253413 275.63302724 512.7262965 272.78825957 512.72728662 C246.08612243 512.7364697 219.38401559 512.72813362 192.68188313 512.71199593 C168.94334205 512.69775844 145.20484925 512.69903229 121.46630859 512.71337891 C94.81392869 512.72943257 68.16157558 512.73581852 41.50919151 512.72654212 C38.66951879 512.72557992 35.82984607 512.7246414 32.99017334 512.72371292 C32.29094097 512.72347569 31.59170859 512.72323846 30.87128736 512.72299404 C20.29848193 512.71957738 9.72569582 512.72358031 -0.84710693 512.73115158 C-12.86532455 512.73971486 -24.88347267 512.73732604 -36.9016881 512.72130935 C-43.03867106 512.71340133 -49.17555581 512.71037796 -55.31253815 512.72025681 C-60.92312672 512.729152 -66.53352543 512.72435686 -72.14409661 512.70832415 C-74.18105704 512.70495428 -76.21803329 512.7067194 -78.25498366 512.71395151 C-81.00975022 512.72298701 -83.76385412 512.71380678 -86.51858521 512.69978905 C-87.32164541 512.70681255 -88.12470562 512.71383604 -88.95210099 512.72107238 C-94.24385695 512.66672397 -94.24385695 512.66672397 -96.77392387 511.04647315 C-98.65757902 507.82384372 -98.20613322 504.01829067 -98.18017578 500.38476562 C-98.18304596 499.50828369 -98.18591614 498.63180176 -98.18887329 497.72875977 C-98.19091426 495.87613275 -98.18538206 494.0234842 -98.17285156 492.17089844 C-98.15679812 489.33284384 -98.17269883 486.49621336 -98.19189453 483.65820312 C-98.18991211 481.85872081 -98.18606844 480.05923938 -98.18017578 478.25976562 C-98.18928482 476.9846814 -98.18928482 476.9846814 -98.19857788 475.68383789 C-98.12819879 469.79747785 -98.12819879 469.79747785 -96.50747681 467.57446289 C-94.78173828 466.32226562 -94.78173828 466.32226562 -90.78173828 466.32226562 C-90.78287744 465.71688093 -90.7840166 465.11149624 -90.78519028 464.48776656 C-90.85229792 428.62228425 -90.9037845 392.75681272 -90.93493427 356.8912807 C-90.93868647 352.58661867 -90.94256943 348.28195676 -90.9465332 343.97729492 C-90.94732013 343.12030003 -90.94810707 342.26330515 -90.94891784 341.38034072 C-90.96197826 327.49683322 -90.9856356 313.61336292 -91.01319667 299.72987751 C-91.04123319 285.4883094 -91.05791082 271.2467608 -91.06400377 257.00516623 C-91.06812385 248.21455047 -91.08114533 239.42403984 -91.10548768 230.63345643 C-91.12132323 224.60864004 -91.1261436 218.58387814 -91.12224241 212.55904243 C-91.12031745 209.0809682 -91.12330607 205.60307792 -91.13935471 202.12503624 C-91.15421602 198.35626521 -91.15071472 194.587949 -91.14250183 190.81916809 C-91.15560962 189.16596116 -91.15560962 189.16596116 -91.16898221 187.47935611 C-91.11143928 177.75240223 -91.11143928 177.75240223 -87.78173828 174.32226562 C-86.13173828 173.99226562 -84.48173828 173.66226563 -82.78173828 173.32226562 C-82.78173828 167.71226562 -82.78173828 162.10226563 -82.78173828 156.32226562 C-84.43173828 155.99226562 -86.08173828 155.66226563 -87.78173828 155.32226562 C-90.37489301 152.9756058 -90.75438933 151.55203124 -91.16992188 148.06103516 C-91.17330566 146.78856934 -91.17668945 145.51610352 -91.18017578 144.20507812 C-91.18448105 143.16466873 -91.18448105 143.16466873 -91.18887329 142.10324097 C-91.19091241 140.63229559 -91.18539307 139.16132301 -91.17285156 137.69042969 C-91.15703755 135.48892719 -91.17257497 133.28932994 -91.19189453 131.08789062 C-91.21230918 118.92144499 -89.94812252 106.98802439 -84.15673828 96.07226562 C-83.81046387 95.40388672 -83.46418945 94.73550781 -83.10742188 94.046875 C-77.75295542 84.12853445 -68.98862797 74.42571047 -58.78173828 69.32226562 C-58.76715576 68.37907471 -58.75257324 67.43588379 -58.73754883 66.46411133 C-58.67634222 62.95067901 -58.6021632 59.43801116 -58.51928711 55.92504883 C-58.48611912 54.40724941 -58.45806196 52.88932906 -58.43530273 51.37133789 C-58.4016055 49.18388544 -58.34928624 46.99753299 -58.29345703 44.81054688 C-58.26727295 43.49610596 -58.24108887 42.18166504 -58.21411133 40.82739258 C-57.72649624 36.87443394 -56.61957952 34.16010686 -53.78173828 31.32226562 C-52.43906415 31.23594688 -51.09199506 31.21520089 -49.74658203 31.22460938 C-48.93769531 31.22783203 -48.12880859 31.23105469 -47.29541016 31.234375 C-46.44527344 31.24275391 -45.59513672 31.25113281 -44.71923828 31.25976562 C-43.86523438 31.26427734 -43.01123047 31.26878906 -42.13134766 31.2734375 C-40.01478165 31.28526189 -37.89825143 31.30319794 -35.78173828 31.32226562 C-35.83394531 29.72898437 -35.83394531 29.72898437 -35.88720703 28.10351562 C-35.68437787 20.83171449 -31.7742216 13.59210912 -26.78173828 8.32226562 C-18.19019065 1.41720697 -10.81469565 0.02178809 0 0 Z M-14.93798828 19.93554688 C-15.38142578 20.49628906 -15.82486328 21.05703125 -16.28173828 21.63476562 C-16.74580078 22.18777344 -17.20986328 22.74078125 -17.68798828 23.31054688 C-19.10829381 25.92289454 -19.41801017 28.39177435 -19.78173828 31.32226562 C-18.58935547 31.34804688 -17.39697266 31.37382812 -16.16845703 31.40039062 C-14.60201408 31.45667001 -13.03560925 31.51401739 -11.46923828 31.57226562 C-10.68355469 31.58644531 -9.89787109 31.600625 -9.08837891 31.61523438 C-7.95239258 31.66357422 -7.95239258 31.66357422 -6.79345703 31.71289062 C-6.09696045 31.73383789 -5.40046387 31.75478516 -4.68286133 31.77636719 C-2.78173828 32.32226562 -2.78173828 32.32226562 -1.03881836 33.90234375 C0.71385612 37.27630169 0.46990879 39.86308451 0.34326172 43.65039062 C0.32654208 45.10479213 0.31229832 46.55922382 0.30029297 48.01367188 C0.26747167 50.29107818 0.21861647 52.56355068 0.12597656 54.83935547 C-0.42140478 64.06687121 -0.42140478 64.06687121 3.56689453 72.00292969 C6.36455986 74.0175859 9.20869588 75.64901752 12.21826172 77.32226562 C24.08990701 87.3055191 31.13919667 100.98701452 33.21826172 116.32226562 C33.38038104 119.63933102 33.40287468 122.95429373 33.42358398 126.27490234 C33.43348358 127.26088913 33.44338318 128.24687592 33.45358276 129.26274109 C33.4850719 132.509121 33.50990532 135.75551552 33.53466797 139.00195312 C33.55524837 141.25782646 33.57624512 143.51369602 33.59764099 145.76956177 C33.65274949 151.69768216 33.70220817 157.6258367 33.75048828 163.55401611 C33.80078535 169.60700509 33.85642854 175.65994466 33.91162109 181.71289062 C34.01906539 193.5826416 34.12004649 205.4524347 34.21826172 217.32226562 C44.44826172 217.32226562 54.67826172 217.32226562 65.21826172 217.32226562 C65.22760742 214.2451123 65.23695313 211.16795898 65.24658203 207.99755859 C65.28047254 197.78754833 65.33608829 187.57773761 65.40216446 177.3678875 C65.44153648 171.18258537 65.47377531 164.99742343 65.48925781 158.81201172 C65.50449208 152.833647 65.53905744 146.85566795 65.58657074 140.87747574 C65.60131492 138.60597222 65.6092987 136.33441361 65.61014557 134.0628624 C65.62608784 112.72709574 68.52671284 96.04600443 83.55712891 79.73803711 C86.37272313 77.18204584 89.07394195 75.81935967 92.45263672 74.10742188 C96.48003327 71.47506004 97.97133992 70.24035231 99.23510742 65.54150391 C99.65925738 61.02519287 99.48355807 56.53386529 99.28076172 52.00976562 C99.22468136 49.66907267 99.18557719 47.32921317 99.16026306 44.98799133 C99.13943731 43.53846084 99.09808278 42.08904285 99.03370667 40.64079285 C98.89429138 35.82145728 98.89429138 35.82145728 100.47314453 33.38867188 C102.53106148 32.13111994 103.8270312 31.90088331 106.22998047 31.81054688 C107.3659668 31.75737305 107.3659668 31.75737305 108.52490234 31.703125 C109.31058594 31.68056641 110.09626953 31.65800781 110.90576172 31.63476562 C111.70304688 31.60060547 112.50033203 31.56644531 113.32177734 31.53125 C115.28678076 31.44888459 117.25249868 31.38389495 119.21826172 31.32226562 C117.58576441 24.74931594 116.02229227 21.00559271 110.21826172 17.32226562 C104.34631587 15.1808538 98.9553602 15.03159887 92.74414062 15.04760742 C91.71394302 15.04249649 90.68374542 15.03738556 89.62232971 15.03211975 C86.22976815 15.01826335 82.83741065 15.01917763 79.44482422 15.02148438 C77.07742233 15.0175952 74.71002114 15.01326007 72.34262085 15.00849915 C67.38480363 15.00104536 62.42705764 15.00132209 57.46923828 15.0065918 C51.12869925 15.01238429 44.78845253 14.99545637 38.44796181 14.97224712 C33.55964464 14.95748605 28.67139749 14.95664135 23.78306198 14.95975685 C21.44598181 14.95924481 19.10889761 14.95402905 16.77183914 14.94394493 C13.49809244 14.93155252 10.22491014 14.9383895 6.95117188 14.94995117 C5.99399765 14.94230743 5.03682343 14.9346637 4.05064392 14.92678833 C-2.71792759 14.97939019 -9.37840949 15.77593449 -14.93798828 19.93554688 Z M189.21826172 186.32226562 C189.21826172 196.55226562 189.21826172 206.78226563 189.21826172 217.32226562 C192.83770752 217.34732178 196.45715332 217.37237793 200.1862793 217.39819336 C212.12455313 217.48154717 224.06278206 217.57019884 236.00099659 217.66160488 C243.241452 217.71691199 250.48191234 217.77038987 257.72241211 217.81958008 C264.03231909 217.86245268 270.34219015 217.90873845 276.65204161 217.95914418 C279.99386982 217.98572032 283.33569103 218.01057277 286.67756081 218.03133965 C290.40577804 218.05536465 294.13390024 218.08542202 297.86206055 218.11694336 C298.97336334 218.12269882 300.08466614 218.12845428 301.22964478 218.13438416 C302.24346725 218.14417297 303.25728973 218.15396179 304.30183411 218.16404724 C305.18398999 218.17049979 306.06614588 218.17695234 306.97503376 218.18360043 C309.21826172 218.32226562 309.21826172 218.32226562 312.21826172 219.32226562 C313.23364824 223.51287773 313.3638306 227.56610355 313.35107422 231.85351562 C313.35203094 232.567052 313.35298767 233.28058838 313.35397339 234.01574707 C313.35465133 235.51847421 313.35282405 237.02120433 313.34863281 238.52392578 C313.34327906 240.81484601 313.34859088 243.1055702 313.35498047 245.39648438 C313.35431962 246.86132855 313.35303831 248.32617261 313.35107422 249.79101562 C313.35309845 250.47135864 313.35512268 251.15170166 313.35720825 251.85266113 C313.33951849 255.46770299 313.07024119 258.80605245 312.21826172 262.32226562 C309.21047651 263.32486069 306.68005525 263.62541204 303.53076172 263.88476562 C302.53689453 263.96855469 301.54302734 264.05234375 300.51904297 264.13867188 C299.75978516 264.19925781 299.00052734 264.25984375 298.21826172 264.32226562 C298.21587337 264.93702633 298.21348501 265.55178703 298.21102428 266.18517685 C298.15189711 281.14129655 298.07636182 296.09724989 297.98254681 311.05318832 C297.93757456 318.28576959 297.89816328 325.51830145 297.87182617 332.75097656 C297.84885756 339.05473003 297.81547247 345.35832736 297.76956016 351.66195703 C297.74561202 354.99998226 297.72844753 358.33770862 297.72064781 361.67583466 C297.71105857 365.40163822 297.68306027 369.12687419 297.65063477 372.85253906 C297.6527874 374.51410034 297.6527874 374.51410034 297.65498352 376.20922852 C297.6361763 377.73202423 297.6361763 377.73202423 297.61698914 379.2855835 C297.61238017 380.16681759 297.60777121 381.04805168 297.60302258 381.95598984 C297.13283428 384.84764361 296.22606446 386.21165884 294.21826172 388.32226562 C293.22826172 388.65226563 292.23826172 388.98226562 291.21826172 389.32226562 C291.08338577 392.09471577 290.98425365 394.8606365 290.90576172 397.63476562 C290.86386719 398.42044922 290.82197266 399.20613281 290.77880859 400.015625 C290.73183324 402.22346681 290.73747767 404.16534316 291.21826172 406.32226562 C293.56034672 408.3202555 293.56034672 408.3202555 296.21826172 409.32226562 C297.48419611 411.8541344 297.37744366 413.67201354 297.42358398 416.50634766 C297.45350182 418.12780197 297.45350182 418.12780197 297.48402405 419.78201294 C297.50073654 420.95287445 297.51744904 422.12373596 297.53466797 423.33007812 C297.55544907 424.52583466 297.57623016 425.72159119 297.59764099 426.95358276 C297.66318461 430.78475027 297.7220439 434.615988 297.78076172 438.44726562 C297.82394235 441.03972089 297.86755649 443.63216898 297.91162109 446.22460938 C298.01968905 452.59042376 298.11872716 458.95628912 298.21826172 465.32226562 C308.44826172 465.32226562 318.67826172 465.32226562 329.21826172 465.32226562 C329.25564453 460.23175781 329.29302734 455.14125 329.33154297 449.89648438 C329.36181368 446.67444508 329.3929555 443.45246164 329.42724609 440.23046875 C329.48160827 435.11469296 329.53271634 429.99902767 329.56469727 424.88305664 C329.59067845 420.75911141 329.6310434 416.63553637 329.68144798 412.51181984 C329.69815195 410.93738212 329.70964422 409.36288032 329.71587563 407.78836632 C329.72547878 405.58532135 329.75349015 403.383231 329.78588867 401.18041992 C329.80254326 399.29845161 329.80254326 399.29845161 329.8195343 397.37846375 C330.21826172 394.32226562 330.21826172 394.32226562 333.21826172 391.32226562 C336.84826172 390.99226562 340.47826172 390.66226563 344.21826172 390.32226562 C344.21826172 348.74226562 344.21826172 307.16226562 344.21826172 264.32226562 C340.91826172 263.99226563 337.61826172 263.66226563 334.21826172 263.32226562 C332.89826172 262.33226562 331.57826172 261.34226562 330.21826172 260.32226562 C329.82585147 257.29297309 329.68108399 254.63227567 329.72216797 251.60351562 C329.72071274 250.74922974 329.71925751 249.89494385 329.71775818 249.01477051 C329.71941764 247.20919381 329.73098429 245.40360305 329.75170898 243.59814453 C329.78065568 240.83239743 329.77232141 238.06856763 329.75927734 235.30273438 C329.76551501 233.5488188 329.77390617 231.79490928 329.78466797 230.04101562 C329.78173233 229.21283325 329.77879669 228.38465088 329.77577209 227.53137207 C329.87072656 221.76037187 329.87072656 221.76037187 331.57481384 219.61218262 C333.93915239 217.75644961 335.94030127 217.80920448 338.90576172 217.63476562 C339.89962891 217.56902344 340.89349609 217.50328125 341.91748047 217.43554688 C342.67673828 217.39816406 343.43599609 217.36078125 344.21826172 217.32226562 C344.26765287 213.22887911 344.30397673 209.13560764 344.328125 205.04199219 C344.33819049 203.64905781 344.35184406 202.2561446 344.36914062 200.86328125 C344.39336392 198.86272203 344.40366986 196.86200948 344.41357422 194.86132812 C344.42928467 193.05462646 344.42928467 193.05462646 344.4453125 191.21142578 C344.52286986 188.19385067 344.52286986 188.19385067 342.21826172 186.32226562 C339.98790874 186.04485318 339.98790874 186.04485318 337.42919922 186.12695312 C336.48818359 186.13339844 335.54716797 186.13984375 334.57763672 186.14648438 C333.59279297 186.16324219 332.60794922 186.18 331.59326172 186.19726562 C330.60068359 186.20628906 329.60810547 186.2153125 328.58544922 186.22460938 C326.12948038 186.24822446 323.67399004 186.28115763 321.21826172 186.32226562 C321.19248047 187.15371094 321.16669922 187.98515625 321.14013672 188.84179688 C321.08341797 189.92847656 321.02669922 191.01515625 320.96826172 192.13476562 C320.92185547 193.21371094 320.87544922 194.29265625 320.82763672 195.40429688 C320.21826172 198.32226562 320.21826172 198.32226562 318.68798828 199.98413086 C315.21022634 201.86843426 311.94679877 201.71347058 308.09326172 201.65039062 C307.30935059 201.64851746 306.52543945 201.64664429 305.71777344 201.64471436 C304.06359593 201.63800445 302.409434 201.62411096 300.75537109 201.60351562 C298.22722571 201.57237604 295.69970488 201.56254331 293.17138672 201.55664062 C291.56200414 201.5474691 289.95262788 201.53709285 288.34326172 201.52539062 C287.21186768 201.51901581 287.21186768 201.51901581 286.05761719 201.51251221 C282.54945297 201.46487516 279.64831202 201.1797782 276.21826172 200.32226562 C275.22826172 193.39226562 275.22826172 193.39226562 274.21826172 186.32226562 C246.16826172 186.32226562 218.11826172 186.32226562 189.21826172 186.32226562 Z " fill="#010101" transform="translate(97.78173828125,-0.322265625)"/>
<path d="M0 0 C97.68 0 195.36 0 296 0 C296 5.61 296 11.22 296 17 C291.79769653 17.02187378 291.79769653 17.02187378 287.51049805 17.04418945 C278.26633794 17.0944696 269.02234744 17.16105283 259.77835369 17.23571491 C254.1723187 17.28049067 248.56635759 17.31973085 242.96020508 17.34643555 C237.55250348 17.37239668 232.14508514 17.41274786 226.73755836 17.46318626 C224.67187834 17.47990374 222.60614928 17.49138751 220.540411 17.49761391 C217.65253194 17.50720201 214.7653856 17.53519745 211.87768555 17.56762695 C211.01885269 17.56619186 210.16001984 17.56475677 209.27516174 17.5632782 C204.99269871 17.50447039 204.99269871 17.50447039 201.28413105 19.34132671 C199.7484864 21.04559926 199.7484864 21.04559926 199.5625 23.9375 C200.11127798 27.77894585 200.92808491 28.67727245 204 31 C206.61489622 31.40314149 208.81655668 31.56478453 211.43066406 31.54589844 C212.17251953 31.55623611 212.914375 31.56657379 213.67871094 31.57722473 C216.12457026 31.60666265 218.56960242 31.60815204 221.015625 31.609375 C222.71386291 31.62435606 224.41208624 31.64108306 226.11029053 31.65948486 C230.57532417 31.70317925 235.04016128 31.723162 239.50537109 31.73822021 C244.06359489 31.75778384 248.62160619 31.79975466 253.1796875 31.83984375 C262.11972616 31.91516838 271.05971731 31.96544615 280 32 C280.00146656 32.60868518 280.00293312 33.21737036 280.00444412 33.84450054 C280.04150512 48.65912152 280.10051035 63.47353316 280.18390274 78.2879591 C280.22370242 85.45214905 280.2560901 92.61622901 280.27099609 99.78051758 C280.28400791 106.02534973 280.31096017 112.26993996 280.35461307 118.51463586 C280.3772391 121.82086104 280.39083082 125.12672221 280.39188385 128.4330349 C280.39424283 132.12524269 280.42123864 135.81650035 280.45410156 139.50854492 C280.4490712 140.60330643 280.44404083 141.69806793 280.43885803 142.82600403 C280.50078741 147.3135643 280.54769468 150.19997075 282.78411865 154.15571594 C285.06202864 156.32306617 285.06202864 156.32306617 289 157 C289 162.61 289 168.22 289 174 C287.02 174.99 285.04 175.98 283 177 C281.29478107 178.70521893 281.83121459 180.92101087 281.79467773 183.25415039 C281.76440491 184.9593988 281.76440491 184.9593988 281.73352051 186.69909668 C281.71704468 187.90312134 281.70056885 189.107146 281.68359375 190.34765625 C281.65561707 191.99743469 281.65561707 191.99743469 281.6270752 193.68054199 C281.55853158 197.80777592 281.49854031 201.93514829 281.4375 206.0625 C281.293125 215.281875 281.14875 224.50125 281 234 C255.59 234 230.18 234 204 234 C203.96261719 227.61011719 203.92523438 221.22023438 203.88671875 214.63671875 C203.85645129 210.59437378 203.82531148 206.55207351 203.79101562 202.50976562 C203.73663473 196.09027313 203.68552728 189.67086906 203.65356445 183.2512207 C203.62760042 178.07693107 203.58724724 172.90293732 203.53681374 167.72883034 C203.52009821 165.7524667 203.50861321 163.77605182 203.50238609 161.7996273 C203.49279582 159.03626687 203.46479804 156.2736715 203.43237305 153.51049805 C203.43380814 152.68906815 203.43524323 151.86763824 203.4367218 151.02131653 C203.46153112 146.90060907 203.46153112 146.90060907 201.7383852 143.29050827 C199.58685014 141.69329392 198.44916173 141.62099644 195.78710938 141.61231995 C194.92907715 141.60241531 194.07104492 141.59251068 193.18701172 141.58230591 C191.77959717 141.58905838 191.77959717 141.58905838 190.34375 141.59594727 C189.3532666 141.58908401 188.3627832 141.58222076 187.34228516 141.57514954 C184.06137849 141.55681655 180.78094699 141.56072803 177.5 141.56640625 C175.22460778 141.56184788 172.94921694 141.55654334 170.67382812 141.55052185 C165.90228689 141.54157818 161.13091292 141.54402858 156.359375 141.55395508 C150.23550054 141.56545159 144.11220208 141.54522872 137.98840332 141.51603794 C133.28902501 141.49772006 128.58978589 141.49795951 123.89038086 141.50367546 C121.63207185 141.50382919 119.37375371 141.49774271 117.11547852 141.48538399 C113.96203115 141.47055774 110.80966287 141.48108947 107.65625 141.49829102 C106.71797363 141.48862305 105.77969727 141.47895508 104.81298828 141.46899414 C100.05469871 141.44926482 100.05469871 141.44926482 95.92350769 143.49809265 C94.57361841 147.15512544 94.56079889 150.68551294 94.56762695 154.53222656 C94.5574353 155.39112488 94.54724365 156.25002319 94.53674316 157.13494873 C94.50658015 159.97024022 94.49734218 162.80519405 94.48828125 165.640625 C94.47143702 167.60790126 94.45328712 169.57516675 94.43388367 171.54241943 C94.38634982 176.7176171 94.3565623 181.89277107 94.33044434 187.06811523 C94.29541763 193.27904196 94.23839525 199.48980082 94.18505096 205.70059204 C94.10649739 215.13370692 94.05592162 224.56660146 94 234 C68.26 234 42.52 234 16 234 C16 167.34 16 100.68 16 32 C95.25 31.625 95.25 31.625 120.29394531 31.52197266 C127.68784315 31.48207398 127.68784315 31.48207398 135.08172607 31.43954468 C138.38071316 31.42063974 141.67967284 31.40730634 144.97869873 31.39730835 C149.18416159 31.38438226 153.38947399 31.36202141 157.59485388 31.33276629 C159.13988667 31.32363609 160.68494359 31.31784791 162.23000193 31.31574559 C164.31441687 31.31243383 166.39839988 31.2969933 168.48272705 31.2784729 C169.65156055 31.27294214 170.82039406 31.26741138 172.02464676 31.26171303 C174.92618512 31.00649278 176.59690733 30.60808484 179 29 C180.39935013 26.20129973 180.25265405 24.09501208 180 21 C178.98709668 19.19313991 178.98709668 19.19313991 177 18 C173.73981228 17.53692655 173.73981228 17.53692655 169.91963196 17.60127258 C169.19427992 17.59462576 168.46892787 17.58797893 167.72159547 17.58113068 C165.28471439 17.56243927 162.84832166 17.56511001 160.41137695 17.56762695 C158.66710717 17.55861352 156.92284374 17.54828733 155.17858887 17.53674316 C150.4371656 17.5090978 145.69586227 17.49987845 140.95436883 17.49388909 C136.00152828 17.48452499 131.04877801 17.45832325 126.09599304 17.43388367 C116.71442106 17.39016081 107.33286653 17.36164942 97.95122355 17.33856028 C87.2717407 17.31153958 76.59234841 17.26762619 65.91293013 17.22227156 C43.94200053 17.12934243 21.97104641 17.05829881 0 17 C0 11.39 0 5.78 0 0 Z " fill="#688DD3" transform="translate(100,232)"/>
<path d="M0 0 C159.06 0 318.12 0 482 0 C482 5.28 482 10.56 482 16 C322.94 16 163.88 16 0 16 C0 10.72 0 5.44 0 0 Z " fill="#BCE098" transform="translate(15,481)"/>
<path d="M0 0 C26.4 0 52.8 0 80 0 C80 25.74 80 51.48 80 78 C53.6 78 27.2 78 0 78 C0 52.26 0 26.52 0 0 Z " fill="#D1E3F8" transform="translate(209,388)"/>
<path d="M0 0 C25.74 0 51.48 0 78 0 C78 25.74 78 51.48 78 78 C52.26 78 26.52 78 0 78 C0 52.26 0 26.52 0 0 Z " fill="#BAD2E9" transform="translate(23,388)"/>
<path d="M0 0 C97.68 0 195.36 0 296 0 C296 5.61 296 11.22 296 17 C291.79769653 17.02187378 291.79769653 17.02187378 287.51049805 17.04418945 C278.26633794 17.0944696 269.02234744 17.16105283 259.77835369 17.23571491 C254.1723187 17.28049067 248.56635759 17.31973085 242.96020508 17.34643555 C237.55250348 17.37239668 232.14508514 17.41274786 226.73755836 17.46318626 C224.67187834 17.47990374 222.60614928 17.49138751 220.540411 17.49761391 C217.65253194 17.50720201 214.7653856 17.53519745 211.87768555 17.56762695 C211.01885269 17.56619186 210.16001984 17.56475677 209.27516174 17.5632782 C205.00510553 17.4952196 205.00510553 17.4952196 201.3192873 19.33742046 C199.78425274 21.07727121 199.78425274 21.07727121 199 24 C193.06 24 187.12 24 181 24 C180.01 21.525 180.01 21.525 179 19 C176.03156553 17.51578277 173.35357036 17.85818599 170.03988647 17.84178162 C169.31538886 17.83684364 168.59089124 17.83190566 167.84443915 17.82681805 C165.40459593 17.81139862 162.96477912 17.80307045 160.52490234 17.79467773 C158.78078477 17.7851027 157.03666953 17.77509284 155.29255676 17.76467896 C150.5469737 17.73758322 145.80138064 17.71659898 141.05576277 17.69667697 C136.10027706 17.67484615 131.14482232 17.64744329 126.18936157 17.62062073 C116.80067217 17.57065448 107.41196561 17.52573027 98.02324259 17.48259836 C87.33655928 17.43325955 76.64990703 17.378329 65.96325374 17.32291877 C43.97553124 17.20903838 21.98777864 17.10241092 0 17 C0 11.39 0 5.78 0 0 Z " fill="#B1D38F" transform="translate(100,232)"/>
<path d="M0 0 C31.02 0 62.04 0 94 0 C94 15.51 94 31.02 94 47 C62.98 47 31.96 47 0 47 C-0.66 44.03 -1.32 41.06 -2 38 C-4.0285831 35.62841973 -4.0285831 35.62841973 -8 35 C-8 29.06 -8 23.12 -8 17 C-6.02 16.01 -4.04 15.02 -2 14 C0.10818511 9.78362979 -0.39148015 4.69776176 0 0 Z " fill="#DD6965" transform="translate(23,139)"/>
<path d="M0 0 C31.02 0 62.04 0 94 0 C94 15.84 94 31.68 94 48 C62.98 48 31.96 48 0 48 C0 32.16 0 16.32 0 0 Z " fill="#DE6A66" transform="translate(178,139)"/>
<path d="M0 0 C25.74 0 51.48 0 78 0 C78 15.51 78 31.02 78 47 C52.26 47 26.52 47 0 47 C0 31.49 0 15.98 0 0 Z " fill="#B9D1E8" transform="translate(23,326)"/>
<path d="M0 0 C25.74 0 51.48 0 78 0 C78 15.51 78 31.02 78 47 C52.26 47 26.52 47 0 47 C0 31.49 0 15.98 0 0 Z " fill="#CE5B5B" transform="translate(23,264)"/>
<path d="M0 0 C31.02 0 62.04 0 94 0 C94 5.28 94 10.56 94 16 C91.25429687 16.05607422 91.25429687 16.05607422 88.453125 16.11328125 C86.05206265 16.1789353 83.6510219 16.24538283 81.25 16.3125 C79.44015625 16.34633789 79.44015625 16.34633789 77.59375 16.38085938 C76.43359375 16.41630859 75.2734375 16.45175781 74.078125 16.48828125 C73.00981445 16.51446533 71.94150391 16.54064941 70.84082031 16.56762695 C67.55929225 16.83803584 67.55929225 16.83803584 64 20 C63.67 29.24 63.34 38.48 63 48 C42.21 48 21.42 48 0 48 C0 32.16 0 16.32 0 0 Z " fill="#D1E3F8" transform="translate(23,201)"/>
<path d="M0 0 C2.22125715 1.4351027 4.31382875 2.95359916 6.40234375 4.57421875 C7.43359375 5.31671875 8.46484375 6.05921875 9.52734375 6.82421875 C16.33070849 13.33178502 22.2919214 22.02458655 23.40234375 31.57421875 C23.40234375 34.87421875 23.40234375 38.17421875 23.40234375 41.57421875 C-7.28765625 41.57421875 -37.97765625 41.57421875 -69.59765625 41.57421875 C-69.59765625 28.59086318 -65.29985776 18.01108465 -56.56640625 8.3203125 C-41.2681718 -6.28506713 -18.81153818 -10.32512998 0 0 Z " fill="#D1E3F8" transform="translate(247.59765625,82.42578125)"/>
<path d="M0 0 C10.66130295 6.83416856 18.3603964 17.00976479 21.75 29.25 C21.75 32.88 21.75 36.51 21.75 40.25 C-8.94 40.25 -39.63 40.25 -71.25 40.25 C-71.25 25.70128867 -67.10201059 16.44404893 -57.1875 6.09765625 C-41.18701309 -9.2456678 -18.93418774 -10.54781235 0 0 Z " fill="#D1E3F8" transform="translate(94.25,83.75)"/>
<path d="M0 0 C15.51 0 31.02 0 47 0 C47 20.13 47 40.26 47 61 C31.49 61 15.98 61 0 61 C0 40.87 0 20.74 0 0 Z " fill="#D1E3F8" transform="translate(442,405)"/>
<path d="M0 0 C0.82830322 -0.00004028 1.65660645 -0.00008057 2.51000977 -0.00012207 C4.25837811 0.00523092 6.00674602 0.0228045 7.75488281 0.05175781 C10.42848367 0.09360886 13.09956436 0.09282639 15.7734375 0.0859375 C17.47397581 0.09643069 19.17450115 0.1093695 20.875 0.125 C21.67301025 0.12520142 22.47102051 0.12540283 23.29321289 0.12561035 C27.67356804 0.21884455 30.31166135 0.44875192 33.4375 3.59375 C33.94543457 5.97764587 33.94543457 5.97764587 33.95507812 8.82788086 C33.96768677 9.89586411 33.98029541 10.96384735 33.99328613 12.06419373 C33.98518921 13.21734573 33.97709229 14.37049774 33.96875 15.55859375 C33.9725769 16.74344864 33.97640381 17.92830353 33.98034668 19.14906311 C33.98307056 21.65659432 33.97567628 24.16415372 33.95898438 26.67163086 C33.93760241 30.51285151 33.95876233 34.3521975 33.984375 38.19335938 C33.98173144 40.6276083 33.97660588 43.06185606 33.96875 45.49609375 C33.97684692 46.64722153 33.98494385 47.7983493 33.99328613 48.98435974 C33.98067749 50.05549515 33.96806885 51.12663055 33.95507812 52.23022461 C33.95030457 53.64228432 33.95030457 53.64228432 33.94543457 55.08287048 C33.27966996 58.3739533 32.07055589 59.56445946 29.4375 61.59375 C26.53885241 62.0037678 24.02678818 62.1787502 21.12890625 62.16015625 C19.92330299 62.16945412 19.92330299 62.16945412 18.69334412 62.17893982 C16.99634002 62.18603199 15.29926626 62.1828744 13.60229492 62.17016602 C11.01154882 62.15631176 8.42442476 62.19035937 5.83398438 62.22851562 C4.18229079 62.22946701 2.53059269 62.22760696 0.87890625 62.22265625 C-0.27755653 62.24254356 -0.27755653 62.24254356 -1.4573822 62.26283264 C-5.12298643 62.19968113 -7.40955046 61.68703173 -10.55078125 59.77124023 C-13.57436351 54.99552141 -13.25985522 50.67017223 -13.19140625 45.125 C-13.19381821 44.01193481 -13.19623016 42.89886963 -13.19871521 41.7520752 C-13.19773697 39.40190056 -13.18434901 37.05170282 -13.15942383 34.70166016 C-13.12511974 31.1062993 -13.13876705 27.51339683 -13.15820312 23.91796875 C-13.15130453 21.63280205 -13.14163204 19.34764168 -13.12890625 17.0625 C-13.13386612 15.98842896 -13.13882599 14.91435791 -13.14393616 13.80773926 C-13.07582061 9.48698303 -12.92059088 6.35270454 -11.06225586 2.4140625 C-7.50199377 -0.17850651 -4.23874325 -0.08708574 0 0 Z " fill="#020304" transform="translate(330.5625,279.40625)"/>
<path d="M0 0 C1.24245483 -0.00574036 1.24245483 -0.00574036 2.51000977 -0.01159668 C4.25831317 -0.01431425 6.00665734 -0.00696381 7.75488281 0.00976562 C10.42865777 0.03117918 13.09974596 0.00996056 15.7734375 -0.015625 C17.47396425 -0.01298169 19.17448934 -0.00785665 20.875 0 C22.07201538 -0.01214539 22.07201538 -0.01214539 23.29321289 -0.02453613 C26.69929559 0.032911 28.90381659 0.11980824 31.64758301 2.23510742 C33.8015142 4.99821496 33.94309083 6.31944189 33.95507812 9.78710938 C33.96768677 10.83499634 33.98029541 11.8828833 33.99328613 12.96252441 C33.98518921 14.08864136 33.97709229 15.2147583 33.96875 16.375 C33.9725769 17.5362439 33.97640381 18.69748779 33.98034668 19.8939209 C33.98306792 22.34839749 33.97569205 24.80290298 33.95898438 27.25732422 C33.93757965 31.01725841 33.95878088 34.77528159 33.984375 38.53515625 C33.98173176 40.91927506 33.97660688 43.30339267 33.96875 45.6875 C33.97684692 46.81361694 33.98494385 47.93973389 33.99328613 49.09997559 C33.98067749 50.14786255 33.96806885 51.19574951 33.95507812 52.27539062 C33.95030457 53.65627869 33.95030457 53.65627869 33.94543457 55.06506348 C33.27381117 58.32601217 32.04744917 59.51794559 29.4375 61.53125 C26.45769608 61.94104806 23.85428683 62.1161734 20.875 62.09765625 C20.04669678 62.10385483 19.21839355 62.11005341 18.36499023 62.11643982 C16.61671116 62.12353217 14.86836446 62.12037411 13.12011719 62.10766602 C10.44600176 62.0937941 7.77538268 62.12788146 5.1015625 62.16601562 C3.40104081 62.16696681 1.70051475 62.16510802 0 62.16015625 C-0.79801025 62.17341446 -1.59602051 62.18667267 -2.41821289 62.20033264 C-5.96287315 62.14090639 -8.16543043 61.81797081 -11.06445312 59.72460938 C-13.36532255 54.81988773 -13.13319332 50.16265602 -13.09375 44.80859375 C-13.0975769 43.67096085 -13.10140381 42.53332794 -13.10534668 41.36122131 C-13.10806517 38.95979933 -13.10070854 36.55834771 -13.08398438 34.15698242 C-13.06255583 30.47833421 -13.08380022 26.80163479 -13.109375 23.12304688 C-13.1067321 20.78905819 -13.10160792 18.45507071 -13.09375 16.12109375 C-13.10184692 15.01998764 -13.10994385 13.91888153 -13.11828613 12.78440857 C-13.10567749 11.75977005 -13.09306885 10.73513153 -13.08007812 9.67944336 C-13.07689575 8.77963242 -13.07371338 7.87982147 -13.07043457 6.95274353 C-11.60908705 -0.01398757 -6.03252523 -0.06120836 0 0 Z " fill="#010102" transform="translate(206.5625,279.46875)"/>
<path d="M0 0 C1.24245483 -0.00361794 1.24245483 -0.00361794 2.51000977 -0.00730896 C4.25834956 -0.00633103 6.00672052 0.00705004 7.75488281 0.03198242 C10.42880588 0.06629469 13.09942392 0.05264065 15.7734375 0.03320312 C17.47397238 0.04010179 19.17449874 0.04977436 20.875 0.0625 C22.07201538 0.0550602 22.07201538 0.0550602 23.29321289 0.04747009 C26.69628833 0.11955944 28.9073473 0.21994857 31.64758301 2.33375549 C33.80192016 5.09619005 33.94309176 6.4173678 33.95507812 9.88476562 C33.96768677 10.93265259 33.98029541 11.98053955 33.99328613 13.06018066 C33.98518921 14.18629761 33.97709229 15.31241455 33.96875 16.47265625 C33.9725769 17.63390015 33.97640381 18.79514404 33.98034668 19.99157715 C33.98306792 22.44605374 33.97569205 24.90055923 33.95898438 27.35498047 C33.93757965 31.11491466 33.95878088 34.87293784 33.984375 38.6328125 C33.98173176 41.01693131 33.97660688 43.40104892 33.96875 45.78515625 C33.97684692 46.91127319 33.98494385 48.03739014 33.99328613 49.19763184 C33.98067749 50.2455188 33.96806885 51.29340576 33.95507812 52.37304688 C33.95030457 53.75393494 33.95030457 53.75393494 33.94543457 55.16271973 C33.27440272 58.42079626 32.04158759 59.61398854 29.4375 61.62890625 C26.53885241 62.03892405 24.02678818 62.21390645 21.12890625 62.1953125 C19.92330299 62.20461037 19.92330299 62.20461037 18.69334412 62.21409607 C16.99634002 62.22118824 15.29926626 62.21803065 13.60229492 62.20532227 C11.01154882 62.19146801 8.42442476 62.22551562 5.83398438 62.26367188 C4.18229079 62.26462326 2.53059269 62.26276321 0.87890625 62.2578125 C-0.27755653 62.27769981 -0.27755653 62.27769981 -1.4573822 62.29798889 C-5.12298643 62.23483738 -7.40955046 61.72218798 -10.55078125 59.80639648 C-13.57436351 55.03067766 -13.25985522 50.70532848 -13.19140625 45.16015625 C-13.19381821 44.04709106 -13.19623016 42.93402588 -13.19871521 41.78723145 C-13.19773697 39.43705681 -13.18434901 37.08685907 -13.15942383 34.73681641 C-13.12511974 31.14145555 -13.13876705 27.54855308 -13.15820312 23.953125 C-13.15130453 21.6679583 -13.14163204 19.38279793 -13.12890625 17.09765625 C-13.13386612 16.02358521 -13.13882599 14.94951416 -13.14393616 13.84289551 C-13.07583206 9.52286533 -12.92133576 6.38891396 -11.06225586 2.45141602 C-7.50550156 -0.141725 -4.23848686 -0.07041858 0 0 Z " fill="#010203" transform="translate(268.5625,279.37109375)"/>
<path d="M0 0 C1.24245483 -0.00574036 1.24245483 -0.00574036 2.51000977 -0.01159668 C4.25831317 -0.01431425 6.00665734 -0.00696381 7.75488281 0.00976562 C10.42865777 0.03117918 13.09974596 0.00996056 15.7734375 -0.015625 C17.47396425 -0.01298169 19.17448934 -0.00785665 20.875 0 C22.07201538 -0.01214539 22.07201538 -0.01214539 23.29321289 -0.02453613 C26.70343668 0.03298084 28.90363432 0.11785672 31.64659119 2.24183655 C33.78115428 4.97056145 33.9473424 6.25286393 33.97094727 9.67944336 C33.9867836 10.70408188 34.00261993 11.7287204 34.01893616 12.78440857 C34.01397629 13.88551468 34.00901642 14.98662079 34.00390625 16.12109375 C34.01320412 17.82610802 34.01320412 17.82610802 34.02268982 19.56556702 C34.02979187 21.96875146 34.02660736 24.37198506 34.01391602 26.77514648 C34.00006337 30.45193114 34.03410395 34.12616522 34.07226562 37.80273438 C34.07321693 40.13802146 34.07135741 42.47331172 34.06640625 44.80859375 C34.07966446 45.90767563 34.09292267 47.00675751 34.10658264 48.1391449 C34.04927676 52.8385728 33.96751499 55.69049442 31.42578125 59.72241211 C27.59066192 62.04384994 24.35655506 62.25255546 19.99609375 62.1953125 C19.19140152 62.20009613 18.38670929 62.20487976 17.55763245 62.20980835 C15.86237627 62.21320032 14.16705405 62.20404692 12.47192383 62.18310547 C9.8788889 62.15629022 7.29016785 62.18289027 4.69726562 62.21484375 C3.04686547 62.21154021 1.39646799 62.20513511 -0.25390625 62.1953125 C-1.02690567 62.20543365 -1.79990509 62.21555481 -2.59632874 62.22598267 C-6.08158977 62.15014607 -8.20820631 61.78902884 -11.04858398 59.72241211 C-13.37350557 54.82174285 -13.13323165 50.16785954 -13.09375 44.80859375 C-13.0975769 43.67096085 -13.10140381 42.53332794 -13.10534668 41.36122131 C-13.10806517 38.95979933 -13.10070854 36.55834771 -13.08398438 34.15698242 C-13.06255583 30.47833421 -13.08380022 26.80163479 -13.109375 23.12304688 C-13.1067321 20.78905819 -13.10160792 18.45507071 -13.09375 16.12109375 C-13.10184692 15.01998764 -13.10994385 13.91888153 -13.11828613 12.78440857 C-13.10567749 11.75977005 -13.09306885 10.73513153 -13.08007812 9.67944336 C-13.07689575 8.77963242 -13.07371338 7.87982147 -13.07043457 6.95274353 C-11.60908705 -0.01398757 -6.03252523 -0.06120836 0 0 Z " fill="#010101" transform="translate(144.5625,279.46875)"/>
<path d="M0 0 C10.89 0 21.78 0 33 0 C33 25.41 33 50.82 33 77 C22.11 77 11.22 77 0 77 C0 51.59 0 26.18 0 0 Z " fill="#D1E3F8" transform="translate(45,388)"/>
<path d="M0 0 C5.28 0 10.56 0 16 0 C16 41.91 16 83.82 16 127 C10.72 127 5.44 127 0 127 C0 85.09 0 43.18 0 0 Z " fill="#668AD0" transform="translate(458,263)"/>
<path d="M0 0 C31.02 0 62.04 0 94 0 C94 5.28 94 10.56 94 16 C93.67 16 93.34 16 93 16 C93 11.05 93 6.1 93 1 C69.57 1 46.14 1 22 1 C22 16.18 22 31.36 22 47 C27.94 47 33.88 47 40 47 C40 39.41 40 31.82 40 24 C47.26 24 54.52 24 62 24 C62.33 23.34 62.66 22.68 63 22 C63 30.58 63 39.16 63 48 C42.21 48 21.42 48 0 48 C0 32.16 0 16.32 0 0 Z " fill="#AEC4D9" transform="translate(23,201)"/>
<path d="M0 0 C31.02 0 62.04 0 94 0 C94 5.61 94 11.22 94 17 C62.98 17 31.96 17 0 17 C0 11.39 0 5.78 0 0 Z " fill="#D2E4F9" transform="translate(178,201)"/>
<path d="M0 0 C11.22 0 22.44 0 34 0 C34 15.18 34 30.36 34 46 C22.78 46 11.56 46 0 46 C0 30.82 0 15.64 0 0 Z " fill="#DD6A66" transform="translate(45,264)"/>
<path d="M0 0 C10.89 0 21.78 0 33 0 C33 15.18 33 30.36 33 46 C22.11 46 11.22 46 0 46 C0 30.82 0 15.64 0 0 Z " fill="#D1E3F8" transform="translate(45,326)"/>
<path d="M0 0 C4.34006981 -0.13917088 8.67215544 -0.25810533 13.01269531 -0.32958984 C14.48301664 -0.35943268 15.95316525 -0.40012433 17.42285156 -0.45263672 C28.50736402 -0.83825073 37.28410216 0.31342318 46.13769531 7.81005859 C56.23362297 18.32687049 55.51062332 30.48899106 55.25 44.125 C55.22990356 45.95831382 55.21165835 47.79164891 55.1953125 49.625 C55.15156736 54.08386523 55.08271439 58.54169438 55 63 C49.72 63 44.44 63 39 63 C38.97421875 60.710625 38.9484375 58.42125 38.921875 56.0625 C38.88335651 53.8216574 38.8382284 51.58103735 38.79248047 49.34033203 C38.76442213 47.79454343 38.74313294 46.24861539 38.72900391 44.70263672 C38.92400281 31.44365193 38.92400281 31.44365193 32.43066406 20.45043945 C26.46197843 15.90252946 19.72161734 16.22321129 12.5 16.1875 C10.69402344 16.14979492 10.69402344 16.14979492 8.8515625 16.11132812 C5.90138896 16.05279294 2.95066099 16.02345179 0 16 C0 10.72 0 5.44 0 0 Z " fill="#668BD0" transform="translate(419,155)"/>
<path d="M0 0 C28.38 0 56.76 0 86 0 C86 5.28 86 10.56 86 16 C57.62 16 29.24 16 0 16 C0 10.72 0 5.44 0 0 Z " fill="#688DD4" transform="translate(287,155)"/>
<path d="M0 0 C31.02 0 62.04 0 94 0 C94 15.51 94 31.02 94 47 C93.67 47 93.34 47 93 47 C93 31.82 93 16.64 93 1 C69.57 1 46.14 1 22 1 C22 16.18 22 31.36 22 47 C14.74 47 7.48 47 0 47 C-0.66 44.03 -1.32 41.06 -2 38 C-4.0285831 35.62841973 -4.0285831 35.62841973 -8 35 C-8 29.06 -8 23.12 -8 17 C-6.02 16.01 -4.04 15.02 -2 14 C0.10818511 9.78362979 -0.39148015 4.69776176 0 0 Z " fill="#C95A59" transform="translate(23,139)"/>
<path d="M0 0 C31.02 0 62.04 0 94 0 C94 15.84 94 31.68 94 48 C62.98 48 31.96 48 0 48 C0 32.16 0 16.32 0 0 Z M23 1 C23 16.18 23 31.36 23 47 C46.1 47 69.2 47 93 47 C93 31.82 93 16.64 93 1 C69.9 1 46.8 1 23 1 Z " fill="#C35757" transform="translate(178,139)"/>
<path d="M0 0 C15.51 0 31.02 0 47 0 C47 7.59 47 15.18 47 23 C31.82 23 16.64 23 1 23 C1 35.54 1 48.08 1 61 C0.67 61 0.34 61 0 61 C0 40.87 0 20.74 0 0 Z " fill="#B8D0E6" transform="translate(442,405)"/>
<path d="M0 0 C0.68384766 0.00902344 1.36769531 0.01804687 2.07226562 0.02734375 C3.73583287 0.05061042 5.39921631 0.08646833 7.0625 0.125 C7.0625 0.455 7.0625 0.785 7.0625 1.125 C6.11375 1.125 5.165 1.125 4.1875 1.125 C-2.94180167 2.23176659 -8.29235968 7.76577369 -12.4375 13.34765625 C-19.97347536 24.2014142 -22.72878252 33.8291077 -23.9375 47.125 C-31.5275 47.125 -39.1175 47.125 -46.9375 47.125 C-46.9375 34.14164443 -42.63970151 23.5618659 -33.90625 13.87109375 C-24.61183369 4.99762021 -12.86950423 -0.22777884 0 0 Z " fill="#B7CFE5" transform="translate(224.9375,76.875)"/>
<path d="M0 0 C0.68384766 0.00902344 1.36769531 0.01804687 2.07226562 0.02734375 C3.73583287 0.05061042 5.39921631 0.08646833 7.0625 0.125 C7.0625 0.455 7.0625 0.785 7.0625 1.125 C5.763125 1.29 4.46375 1.455 3.125 1.625 C-5.18007668 3.51548056 -10.22534413 9.69351283 -14.75 16.5625 C-15.83800946 18.40181392 -16.90265661 20.25525685 -17.9375 22.125 C-18.53884766 23.18460938 -18.53884766 23.18460938 -19.15234375 24.265625 C-22.76234538 31.40389238 -23.62496938 39.3154428 -24.9375 47.125 C-32.1975 47.125 -39.4575 47.125 -46.9375 47.125 C-46.9375 32.57628867 -42.78951059 23.31904893 -32.875 12.97265625 C-23.84523742 4.31375892 -12.5128164 -0.22146578 0 0 Z " fill="#B7CFE6" transform="translate(69.9375,76.875)"/>
<path d="M0 0 C15.51 0 31.02 0 47 0 C47 5.61 47 11.22 47 17 C31.49 17 15.98 17 0 17 C0 11.39 0 5.78 0 0 Z " fill="#C6D7EA" transform="translate(442,232)"/>
<path d="M0 0 C5.28 0 10.56 0 16 0 C16 15.51 16 31.02 16 47 C10.72 47 5.44 47 0 47 C0 31.49 0 15.98 0 0 Z " fill="#CEE0F4" transform="translate(388,139)"/>
<path d="M0 0 C31.02 0 62.04 0 94 0 C94 5.61 94 11.22 94 17 C62.98 17 31.96 17 0 17 C0 11.39 0 5.78 0 0 Z M23 1 C23 5.95 23 10.9 23 16 C46.1 16 69.2 16 93 16 C93 11.05 93 6.1 93 1 C69.9 1 46.8 1 23 1 Z " fill="#9FB2C5" transform="translate(178,201)"/>
<path d="M0 0 C5.28 0 10.56 0 16 0 C16 10.56 16 21.12 16 32 C10.72 32 5.44 32 0 32 C0 21.44 0 10.88 0 0 Z " fill="#C9DAEE" transform="translate(333,294)"/>
<path d="M0 0 C5.28 0 10.56 0 16 0 C16 10.56 16 21.12 16 32 C10.72 32 5.44 32 0 32 C0 21.44 0 10.88 0 0 Z " fill="#CBDCF0" transform="translate(271,294)"/>
<path d="M0 0 C5.28 0 10.56 0 16 0 C16 10.56 16 21.12 16 32 C10.72 32 5.44 32 0 32 C0 21.44 0 10.88 0 0 Z " fill="#CCDEF2" transform="translate(209,294)"/>
<path d="M0 0 C7.26 0 14.52 0 22 0 C22 7.59 22 15.18 22 23 C14.74 23 7.48 23 0 23 C0 15.41 0 7.82 0 0 Z " fill="#BBD3EA" transform="translate(63,225)"/>
<path d="M0 0 C5.28 0 10.56 0 16 0 C16 10.23 16 20.46 16 31 C10.72 31 5.44 31 0 31 C0 20.77 0 10.54 0 0 Z " fill="#D1E3F8" transform="translate(147,295)"/>
<path d="M0 0 C9.24 0 18.48 0 28 0 C28 5.94 28 11.88 28 18 C25.36 17.67 22.72 17.34 20 17 C17.43865621 16.91247669 14.87533332 16.8697321 12.3125 16.875 C11.05050781 16.87242188 9.78851563 16.86984375 8.48828125 16.8671875 C4.72128197 16.91823252 4.72128197 16.91823252 0 18 C0 12.06 0 6.12 0 0 Z " fill="#D76663" transform="translate(211,46)"/>
<path d="M0 0 C8.91 0 17.82 0 27 0 C27 5.61 27 11.22 27 17 C18.09 17 9.18 17 0 17 C0 11.39 0 5.78 0 0 Z " fill="#DC6965" transform="translate(56,46)"/>
<path d="M0 0 C7.26 0 14.52 0 22 0 C22 4.95 22 9.9 22 15 C42.79 15 63.58 15 85 15 C85 10.05 85 5.1 85 0 C85.33 0 85.66 0 86 0 C86 5.28 86 10.56 86 16 C57.62 16 29.24 16 0 16 C0 10.72 0 5.44 0 0 Z " fill="#4373C2" transform="translate(287,155)"/>
<path d="M0 0 C7.59 0 15.18 0 23 0 C23 5.28 23 10.56 23 16 C15.41 16 7.82 16 0 16 C0 10.72 0 5.44 0 0 Z " fill="#ACD680" transform="translate(15,481)"/>
<path d="M0 0 C7.26 0 14.52 0 22 0 C22 4.95 22 9.9 22 15 C14.74 15 7.48 15 0 15 C0 10.05 0 5.1 0 0 Z " fill="#ACD680" transform="translate(101,233)"/>
</svg>
