<?xml version="1.0" encoding="UTF-8"?>
<svg version="1.1" xmlns="http://www.w3.org/2000/svg" width="512" height="512">
<path d="M0 0 C70.62 0 141.24 0 214 0 C214 42.57 214 85.14 214 129 C196 133 196 133 193 133 C193.00368717 133.92821658 193.00737434 134.85643316 193.01117325 135.81277752 C193.0999334 158.38826257 193.1656849 180.96372502 193.20724869 203.53934765 C193.22788238 214.45671473 193.25601848 225.37396662 193.30175781 236.29125977 C193.34160077 245.80570483 193.36742694 255.32006647 193.37635398 264.83459264 C193.38157302 269.87346269 193.39385652 274.91209406 193.42292023 279.95088768 C193.45004913 284.69261423 193.45845009 289.43400354 193.45243073 294.17580032 C193.45353209 295.9168932 193.46150104 297.65799724 193.4768219 299.39902306 C193.49671083 301.77551973 193.49194395 304.15074156 193.48101807 306.52726746 C193.49266943 307.21696489 193.5043208 307.90666232 193.51632524 308.61725968 C193.47387602 312.03086248 193.04676636 313.92533293 191.21993637 316.84204578 C186.88999321 321.05109394 183.85083922 321.2518531 177.8397522 321.26742554 C177.11777912 321.27195665 176.39580605 321.27648776 175.65195501 321.28115618 C173.23226045 321.29381846 170.81279044 321.29217866 168.39306641 321.29052734 C166.65838837 321.29651145 164.923713 321.30331672 163.18904114 321.31088257 C158.4762013 321.32856156 153.76343408 321.33323874 149.05056429 321.33451414 C145.1166467 321.33641288 141.18274604 321.3437701 137.24883497 321.35085833 C127.96763907 321.36714702 118.68648198 321.37202684 109.40527344 321.37060547 C99.83037966 321.36940381 90.25571122 321.39050928 80.68087447 321.4220928 C72.46079975 321.44824152 64.24079869 321.45897336 56.02068269 321.45769465 C51.11097379 321.45718461 46.20146512 321.46289082 41.29179764 321.48405075 C36.67391513 321.50340956 32.05642435 321.5035738 27.43852806 321.48901749 C25.74462881 321.48692537 24.0507052 321.49165426 22.35684776 321.5037384 C20.04217638 321.51918069 17.72885744 321.50989091 15.41421509 321.49447632 C14.11968225 321.49556585 12.82514942 321.49665539 11.49138832 321.49777794 C7.33611069 320.90534727 5.20740659 319.67414704 2 317 C-0.0228785 313.83217566 -0.24907279 311.34098931 -0.24609566 307.61957169 C-0.25007775 306.52130468 -0.25405985 305.42303767 -0.25816262 304.29148984 C-0.25233693 303.08527439 -0.24651125 301.87905894 -0.24050903 300.6362915 C-0.24221788 299.35472192 -0.24392673 298.07315233 -0.24568737 296.7527473 C-0.25016514 293.19304699 -0.24215135 289.63346674 -0.23213124 286.07378173 C-0.22350522 282.23605205 -0.2264163 278.3983293 -0.22793579 274.56059265 C-0.22898518 267.91063072 -0.22270295 261.26070799 -0.21146011 254.61075592 C-0.19521538 244.99601253 -0.18999816 235.38128813 -0.18748413 225.76653251 C-0.18310541 210.1677492 -0.16979152 194.5689868 -0.15087891 178.97021484 C-0.13252468 163.81624454 -0.11838886 148.66227993 -0.10986328 133.50830078 C-0.10932729 132.56489432 -0.10879129 131.62148787 -0.10823905 130.64949334 C-0.10408028 123.27158366 -0.10016641 115.89367385 -0.09632993 108.515764 C-0.07745795 72.34382348 -0.03722244 36.17193528 0 0 Z M22 278 C22 284.93 22 291.86 22 299 C28.93 299 35.86 299 43 299 C43 292.07 43 285.14 43 278 C36.07 278 29.14 278 22 278 Z M65 278 C65 284.93 65 291.86 65 299 C71.93 299 78.86 299 86 299 C86 292.07 86 285.14 86 278 C79.07 278 72.14 278 65 278 Z M108 278 C108 284.93 108 291.86 108 299 C114.6 299 121.2 299 128 299 C128 292.07 128 285.14 128 278 C121.4 278 114.8 278 108 278 Z M150 278 C150 284.93 150 291.86 150 299 C156.93 299 163.86 299 171 299 C171 292.07 171 285.14 171 278 C164.07 278 157.14 278 150 278 Z " fill="#000000" transform="translate(10,181)"/>
<path d="M0 0 C49.5 0 99 0 150 0 C150 59.4 150 118.8 150 180 C140.97774432 182.40593485 132.04473988 184.75380686 122.93994141 186.74902344 C121.83720383 186.99344681 120.73446625 187.23787018 119.59831238 187.48970032 C116.01674703 188.28272609 112.43418567 189.07114325 108.8515625 189.859375 C106.34185256 190.4139099 103.83219977 190.96870344 101.32260132 191.52374268 C96.09701292 192.67878058 90.8709845 193.83179419 85.64453125 194.98291016 C78.93068191 196.46163528 72.21773785 197.94442921 65.5050602 199.42846298 C59.10006058 200.84444171 52.69455152 202.25811215 46.2890625 203.671875 C45.06322071 203.94263603 43.83737892 204.21339706 42.57439041 204.49236298 C39.13268328 205.25220856 35.6906634 206.01061935 32.24853516 206.76855469 C31.21906265 206.99603897 30.18959015 207.22352325 29.12892151 207.457901 C28.19842484 207.66247421 27.26792816 207.86704742 26.30923462 208.07781982 C25.49633783 208.25698315 24.68344105 208.43614647 23.84591103 208.62073898 C22 209 22 209 21 209 C21 161.15 21 113.3 21 64 C14.07 64 7.14 64 0 64 C0 42.88 0 21.76 0 0 Z " fill="#000000" transform="translate(224,96)"/>
<path d="M0 0 C70.62 0 141.24 0 214 0 C214 38.94 214 77.88 214 118 C143.38 118 72.76 118 0 118 C0 79.06 0 40.12 0 0 Z " fill="#000000" transform="translate(288,384)"/>
<path d="M0 0 C0.93650391 0.59941406 1.87300781 1.19882812 2.83789062 1.81640625 C4.32772461 2.80253906 4.32772461 2.80253906 5.84765625 3.80859375 C8.00233714 5.19572737 10.1572927 6.58243441 12.3125 7.96875 C13.95774658 9.03826904 13.95774658 9.03826904 15.63623047 10.12939453 C20.68937448 13.39641605 25.80023138 16.56893621 30.91015625 19.74609375 C32.89354065 20.98517864 34.87661206 22.22476465 36.859375 23.46484375 C41.02787737 26.07024272 45.19727386 28.67420416 49.3671875 31.27734375 C50.43130859 31.94185547 51.49542969 32.60636719 52.59179688 33.29101562 C54.60458018 34.54790651 56.61758284 35.8044462 58.63085938 37.06054688 C63.44479541 40.06715731 68.25128091 43.08530107 73.046875 46.12109375 C74.40945435 46.98347656 74.40945435 46.98347656 75.79956055 47.86328125 C77.91015625 49.24609375 77.91015625 49.24609375 78.91015625 50.24609375 C78.91015625 57.50609375 78.91015625 64.76609375 78.91015625 72.24609375 C1.36015625 72.24609375 -76.18984375 72.24609375 -156.08984375 72.24609375 C-156.08984375 118.11609375 -156.08984375 163.98609375 -156.08984375 211.24609375 C-170.27984375 211.24609375 -184.46984375 211.24609375 -199.08984375 211.24609375 C-199.08984375 154.48609375 -199.08984375 97.72609375 -199.08984375 39.24609375 C-164.51262227 31.1780754 -164.51262227 31.1780754 -151.38305664 28.23852539 C-149.84319097 27.89275821 -148.30334597 27.54689901 -146.76351929 27.20095825 C-141.86363165 26.10070081 -136.96312008 25.0032398 -132.0625 23.90625 C-131.21969128 23.71753602 -130.37688257 23.52882204 -129.50853419 23.33438945 C-121.53196629 21.54836741 -113.55519268 19.76326772 -105.57781315 17.98087406 C-95.47703299 15.72400482 -85.37743218 13.46200218 -75.27931982 11.19322497 C-68.10954866 9.58279935 -60.93851946 7.9780591 -53.76652712 6.37755483 C-49.50643321 5.42671605 -45.246923 4.47342967 -40.98875618 3.51399422 C-37.00654269 2.61686144 -33.02281707 1.72678635 -29.03782272 0.84209061 C-27.58078957 0.51734315 -26.124318 0.19006377 -24.6684742 -0.13997459 C-22.67722713 -0.5909799 -20.68369467 -1.03185884 -18.69007874 -1.47227478 C-17.57772386 -1.72128509 -16.46536898 -1.97029539 -15.31930637 -2.22685146 C-9.37047961 -3.19771194 -5.10758189 -3.33563572 0 0 Z " fill="#000000" transform="translate(423.08984375,290.75390625)"/>
<path d="M0 0 C1.23771652 -0.00571014 2.47543304 -0.01142029 3.75065613 -0.01730347 C5.11451711 -0.01854867 6.47837821 -0.0196738 7.84223938 -0.02069092 C9.28486253 -0.02532255 10.72748446 -0.03034767 12.17010498 -0.03573608 C16.08357822 -0.04883034 19.99703432 -0.05529942 23.91052604 -0.05974674 C26.35878779 -0.06268275 28.80704492 -0.06678859 31.25530434 -0.07125092 C38.92476399 -0.08491906 46.59421299 -0.09458862 54.26368397 -0.09845281 C63.09921042 -0.10292966 71.93458186 -0.12046304 80.77006119 -0.1494534 C87.61102921 -0.17111561 94.45195377 -0.18115953 101.2929557 -0.18249393 C105.37332967 -0.18353886 109.45355781 -0.18937984 113.53389549 -0.20731354 C117.37612163 -0.22387259 121.21809354 -0.22591206 125.06034279 -0.21717453 C126.46391611 -0.21640828 127.86750354 -0.22069201 129.27104187 -0.23063278 C142.43744093 -0.3183534 152.02334157 1.42286645 161.57002258 10.83966064 C170.39510209 20.48870335 169.84736633 29.94600176 169.84736633 43.14044189 C180.40736633 43.14044189 190.96736633 43.14044189 201.84736633 43.14044189 C201.84736633 50.40044189 201.84736633 57.66044189 201.84736633 65.14044189 C173.46736633 65.14044189 145.08736633 65.14044189 115.84736633 65.14044189 C115.84736633 57.88044189 115.84736633 50.62044189 115.84736633 43.14044189 C126.40736633 43.14044189 136.96736633 43.14044189 147.84736633 43.14044189 C147.34736633 29.64044189 147.34736633 29.64044189 140.84736633 24.14044189 C137.71049448 22.85277653 134.54125133 23.00996649 131.17443848 23 C130.01790268 22.99428986 128.86136688 22.98857971 127.66978455 22.98269653 C125.7722493 22.98101974 125.7722493 22.98101974 123.83638 22.97930908 C122.48755763 22.97467855 121.13873655 22.96965358 119.78991699 22.96426392 C116.12864408 22.95116074 112.46738948 22.94469906 108.80609679 22.94025326 C106.51716539 22.93731924 104.22823897 22.93321382 101.93931007 22.92874908 C94.77335483 22.9150798 87.607411 22.90541029 80.44144362 22.90154719 C72.17751767 22.89706733 63.91375719 22.87952048 55.64988154 22.8505466 C49.25653502 22.82891123 42.863235 22.81884193 36.46985227 22.81750607 C32.65392109 22.8164594 28.83814558 22.81058091 25.02225304 22.79268646 C21.4312014 22.77617351 17.84042192 22.77406573 14.24934578 22.78282547 C12.31005495 22.78395944 10.37077303 22.77026709 8.43153381 22.756073 C-0.33503047 22.70798473 -0.33503047 22.70798473 -8.15263367 26.14044189 C-11.46592028 31.50417937 -11.59529523 36.46765976 -11.58500671 42.65582275 C-11.59519836 43.58343414 -11.60539001 44.51104553 -11.6158905 45.46676636 C-11.64592805 48.51300163 -11.65527239 51.55892196 -11.66435242 54.60528564 C-11.68120593 56.72521502 -11.69935708 58.84513445 -11.71875 60.96504211 C-11.76618289 66.52982473 -11.79603577 72.09456698 -11.82218933 77.65948486 C-11.85202863 83.34397348 -11.89854743 89.02832314 -11.94364929 94.71270752 C-12.02960625 105.85522881 -12.09544297 116.99773579 -12.15263367 128.14044189 C-1.59263367 128.14044189 8.96736633 128.14044189 19.84736633 128.14044189 C19.84736633 135.40044189 19.84736633 142.66044189 19.84736633 150.14044189 C-8.53263367 150.14044189 -36.91263367 150.14044189 -66.15263367 150.14044189 C-66.15263367 142.88044189 -66.15263367 135.62044189 -66.15263367 128.14044189 C-55.59263367 128.14044189 -45.03263367 128.14044189 -34.15263367 128.14044189 C-34.16834412 125.16351318 -34.18405457 122.18658447 -34.20024109 119.1194458 C-34.25005006 109.26080359 -34.28312781 99.40215569 -34.30807018 89.54342079 C-34.32369614 83.5686945 -34.3448784 77.59409763 -34.37895203 71.6194458 C-34.41165482 65.84875601 -34.42950976 60.07819035 -34.4372654 54.30741501 C-34.44278931 52.11070172 -34.45357602 49.91399489 -34.46982384 47.71733475 C-34.4917431 44.62987063 -34.49459452 41.54291326 -34.49320984 38.4553833 C-34.50399567 37.55626221 -34.51478149 36.65714111 -34.52589417 35.73077393 C-34.47241791 24.64179717 -31.23527445 16.30698117 -23.45341492 8.41778564 C-16.58829776 2.13890321 -9.23141551 0.02557292 0 0 Z " fill="#000000" transform="translate(140.1526336669922,9.85955810546875)"/>
</svg>
